<svg width="149" height="274" viewBox="0 0 149 274" fill="none" xmlns="http://www.w3.org/2000/svg">
<rect x="1" y="1" width="147" height="271.95" rx="20" fill="#D9D9D9" stroke="black"/>
<path d="M1 134.77H148V262.95C148 268.473 143.523 272.95 138 272.95H11C5.47715 272.95 1 268.473 1 262.95V134.77Z" fill="#DFDFDF" stroke="black"/>
<path d="M1 11C1 5.47716 5.47715 1 11 1H138C143.523 1 148 5.47715 148 11V134.77H1V11Z" fill="#DFDFDF" stroke="black"/>
<path d="M1 256.78H148V262.95C148 268.473 143.523 272.95 138 272.95H11C5.47715 272.95 1 268.473 1 262.95V256.78Z" fill="#9D9D9D" stroke="black"/>
<path fill-rule="evenodd" clip-rule="evenodd" d="M52.4899 136.96C52.6141 135.779 51.6882 134.75 50.5009 134.75H18.107C16.9197 134.75 15.9938 135.779 16.118 136.96L16.7507 142.975C16.8577 143.993 17.7161 144.766 18.7397 144.766H49.8682C50.8918 144.766 51.7502 143.993 51.8573 142.975L52.4899 136.96Z" fill="#9D9D9D"/>
<path d="M51.8573 142.975L51.36 142.923L51.8573 142.975ZM52.4899 136.96L52.9872 137.012L52.4899 136.96ZM50.5009 134.25H18.107V135.25H50.5009V134.25ZM15.6207 137.012L16.2534 143.027L17.2479 142.923L16.6153 136.907L15.6207 137.012ZM18.7397 145.266H49.8682V144.266H18.7397V145.266ZM52.3545 143.027L52.9872 137.012L51.9927 136.907L51.36 142.923L52.3545 143.027ZM49.8682 145.266C51.1477 145.266 52.2207 144.3 52.3545 143.027L51.36 142.923C51.2797 143.686 50.6359 144.266 49.8682 144.266V145.266ZM16.2534 143.027C16.3872 144.3 17.4602 145.266 18.7397 145.266V144.266C17.972 144.266 17.3282 143.686 17.2479 142.923L16.2534 143.027ZM18.107 134.25C16.6229 134.25 15.4655 135.536 15.6207 137.012L16.6153 136.907C16.5221 136.022 17.2165 135.25 18.107 135.25V134.25ZM50.5009 135.25C51.3914 135.25 52.0858 136.022 51.9927 136.907L52.9872 137.012C53.1424 135.536 51.9851 134.25 50.5009 134.25V135.25Z" fill="black"/>
</svg>
