<svg width="149" height="274" viewBox="0 0 149 274" fill="none" xmlns="http://www.w3.org/2000/svg">
<rect x="1" y="1" width="147" height="271.95" rx="20" fill="#D9D9D9" stroke="black"/>
<path d="M1 134.77H148V262.95C148 268.473 143.523 272.95 138 272.95H11C5.47715 272.95 1 268.473 1 262.95V134.77Z" fill="#404040" stroke="black"/>
<path d="M1 11C1 5.47716 5.47715 1 11 1H138C143.523 1 148 5.47715 148 11V134.77H1V11Z" fill="#404040" stroke="black"/>
<path d="M1 256.78H148V262.95C148 268.473 143.523 272.95 138 272.95H11C5.47715 272.95 1 268.473 1 262.95V256.78Z" fill="#C6C6C6" stroke="black"/>
<path fill-rule="evenodd" clip-rule="evenodd" d="M52.4898 136.96C52.614 135.779 51.6881 134.75 50.5008 134.75H18.1069C16.9196 134.75 15.9937 135.779 16.1179 136.96L16.7506 142.975C16.8576 143.993 17.716 144.766 18.7396 144.766H49.8681C50.8917 144.766 51.7501 143.993 51.8571 142.975L52.4898 136.96Z" fill="#C6C6C6"/>
<path d="M51.8571 142.975L51.3599 142.923L51.8571 142.975ZM52.4898 136.96L52.9871 137.012L52.4898 136.96ZM50.5008 134.25H18.1069V135.25H50.5008V134.25ZM15.6206 137.012L16.2533 143.027L17.2478 142.923L16.6151 136.907L15.6206 137.012ZM18.7396 145.266H49.8681V144.266H18.7396V145.266ZM52.3544 143.027L52.9871 137.012L51.9926 136.907L51.3599 142.923L52.3544 143.027ZM49.8681 145.266C51.1476 145.266 52.2206 144.3 52.3544 143.027L51.3599 142.923C51.2796 143.686 50.6358 144.266 49.8681 144.266V145.266ZM16.2533 143.027C16.3871 144.3 17.4601 145.266 18.7396 145.266V144.266C17.9719 144.266 17.3281 143.686 17.2478 142.923L16.2533 143.027ZM18.1069 134.25C16.6227 134.25 15.4654 135.536 15.6206 137.012L16.6151 136.907C16.522 136.022 17.2164 135.25 18.1069 135.25V134.25ZM50.5008 135.25C51.3913 135.25 52.0857 136.022 51.9926 136.907L52.9871 137.012C53.1423 135.536 51.985 134.25 50.5008 134.25V135.25Z" fill="black"/>
</svg>
