<svg width="202" height="372" viewBox="0 0 202 372" fill="none" xmlns="http://www.w3.org/2000/svg">
<rect x="1" y="1" width="200" height="370" rx="20" fill="#D9D9D9" stroke="black"/>
<path d="M1 183H201V351C201 362.046 192.046 371 181 371H21C9.95431 371 1 362.046 1 351V183Z" fill="#DFDFDF" stroke="black"/>
<path d="M1 21C1 9.9543 9.95431 1 21 1H181C192.046 1 201 9.95431 201 21V183H1V21Z" fill="#DFDFDF" stroke="black"/>
<path d="M1 349H201V351C201 362.046 192.046 371 181 371H21C9.95431 371 1 362.046 1 351V349Z" fill="#9D9D9D" stroke="black"/>
<path fill-rule="evenodd" clip-rule="evenodd" d="M71.138 185.183C71.2622 184.002 70.3363 182.974 69.149 182.974H23.4736C22.2863 182.974 21.3604 184.002 21.4846 185.183L22.497 194.809C22.6041 195.827 23.4625 196.6 24.4861 196.6H68.1365C69.1601 196.6 70.0185 195.827 70.1255 194.809L71.138 185.183Z" fill="#9D9D9D"/>
<path d="M70.1255 194.809L70.6228 194.861L70.1255 194.809ZM71.138 185.183L71.6352 185.235L71.138 185.183ZM69.149 182.474H23.4736V183.474H69.149V182.474ZM20.9873 185.235L21.9998 194.861L22.9943 194.757L21.9818 185.131L20.9873 185.235ZM24.4861 197.1H68.1365V196.1H24.4861V197.1ZM70.6228 194.861L71.6352 185.235L70.6407 185.131L69.6283 194.757L70.6228 194.861ZM68.1365 197.1C69.416 197.1 70.4889 196.134 70.6228 194.861L69.6283 194.757C69.548 195.52 68.9042 196.1 68.1365 196.1V197.1ZM21.9998 194.861C22.1336 196.134 23.2066 197.1 24.4861 197.1V196.1C23.7184 196.1 23.0746 195.52 22.9943 194.757L21.9998 194.861ZM23.4736 182.474C21.9894 182.474 20.8321 183.759 20.9873 185.235L21.9818 185.131C21.8887 184.245 22.5831 183.474 23.4736 183.474V182.474ZM69.149 183.474C70.0395 183.474 70.7339 184.245 70.6407 185.131L71.6352 185.235C71.7905 183.759 70.6331 182.474 69.149 182.474V183.474Z" fill="black"/>
</svg>
