<svg width="202" height="372" viewBox="0 0 202 372" fill="none" xmlns="http://www.w3.org/2000/svg">
<rect x="1" y="1" width="200" height="370" rx="20" fill="#D9D9D9" stroke="black"/>
<path d="M1 183H201V351C201 362.046 192.046 371 181 371H21C9.95431 371 1 362.046 1 351V183Z" fill="white" stroke="black"/>
<path d="M1 21C1 9.9543 9.95431 1 21 1H181C192.046 1 201 9.95431 201 21V183H1V21Z" fill="white" stroke="black"/>
<path d="M1 349H201V351C201 362.046 192.046 371 181 371H21C9.95431 371 1 362.046 1 351V349Z" fill="#D9D9D9" stroke="black"/>
<path fill-rule="evenodd" clip-rule="evenodd" d="M71.022 186.287C71.2083 184.516 69.8194 182.974 68.0384 182.974H24.5847C22.8037 182.974 21.4148 184.516 21.6011 186.287L22.4032 193.913C22.5638 195.44 23.8514 196.6 25.3868 196.6H67.2363C68.7717 196.6 70.0593 195.44 70.2199 193.913L71.022 186.287Z" fill="#D9D9D9"/>
<path d="M70.2199 193.913L69.7226 193.861L70.2199 193.913ZM21.6011 186.287L21.1039 186.34L21.6011 186.287ZM68.0384 182.474H24.5847V183.474H68.0384V182.474ZM21.1039 186.34L21.906 193.966L22.9005 193.861L22.0984 186.235L21.1039 186.34ZM25.3868 197.1H67.2363V196.1H25.3868V197.1ZM70.7171 193.966L71.5192 186.34L70.5247 186.235L69.7226 193.861L70.7171 193.966ZM67.2363 197.1C69.0276 197.1 70.5297 195.747 70.7171 193.966L69.7226 193.861C69.5888 195.134 68.5158 196.1 67.2363 196.1V197.1ZM21.906 193.966C22.0933 195.747 23.5955 197.1 25.3868 197.1V196.1C24.1073 196.1 23.0343 195.134 22.9005 193.861L21.906 193.966ZM24.5847 182.474C22.5068 182.474 20.8865 184.273 21.1039 186.34L22.0984 186.235C21.9431 184.759 23.1005 183.474 24.5847 183.474V182.474ZM68.0384 183.474C69.5226 183.474 70.68 184.759 70.5247 186.235L71.5192 186.34C71.7366 184.273 70.1163 182.474 68.0384 182.474V183.474Z" fill="black"/>
</svg>
