<svg width="11" height="11" viewBox="0 0 11 11" fill="none" xmlns="http://www.w3.org/2000/svg">
<path d="M5.5 0C6.22935 0 6.92882 0.289731 7.44454 0.805456C7.96027 1.32118 8.25 2.02065 8.25 2.75C8.25 3.47935 7.96027 4.17882 7.44454 4.69454C6.92882 5.21027 6.22935 5.5 5.5 5.5C4.77065 5.5 4.07118 5.21027 3.55546 4.69454C3.03973 4.17882 2.75 3.47935 2.75 2.75C2.75 2.02065 3.03973 1.32118 3.55546 0.805456C4.07118 0.289731 4.77065 0 5.5 0M5.5 1.375C5.13533 1.375 4.78559 1.51987 4.52773 1.77773C4.26987 2.03559 4.125 2.38533 4.125 2.75C4.125 3.11467 4.26987 3.46441 4.52773 3.72227C4.78559 3.98013 5.13533 4.125 5.5 4.125C5.86467 4.125 6.21441 3.98013 6.47227 3.72227C6.73013 3.46441 6.875 3.11467 6.875 2.75C6.875 2.38533 6.73013 2.03559 6.47227 1.77773C6.21441 1.51987 5.86467 1.375 5.5 1.375M5.5 6.1875C7.33563 6.1875 11 7.10187 11 8.9375V11H0V8.9375C0 7.10187 3.66437 6.1875 5.5 6.1875ZM5.5 7.49375C3.45812 7.49375 1.30625 8.4975 1.30625 8.9375V9.69375H9.69375V8.9375C9.69375 8.4975 7.54188 7.49375 5.5 7.49375Z" fill="black"/>
</svg>
