<svg width="100" height="100" viewBox="0 0 100 100" fill="none" xmlns="http://www.w3.org/2000/svg">
<ellipse cx="49.5" cy="38.4248" rx="41.5" ry="23.4248" fill="#FAEFE3" stroke="black"/>
<path fill-rule="evenodd" clip-rule="evenodd" d="M90.6812 41.3428C90.8916 40.3868 91 39.413 91 38.4248C91 25.4876 72.4198 15 49.5 15C26.5802 15 8 25.4876 8 38.4248C8 39.413 8.1084 40.3868 8.31885 41.3428C10.8637 29.7827 28.3308 20.836 49.5 20.836C70.6692 20.836 88.1363 29.7827 90.6812 41.3428Z" fill="#E2E2E2"/>
<path d="M90.6812 41.3428L90.1928 41.4503L91.1695 41.4503L90.6812 41.3428ZM8.31885 41.3428L7.83054 41.4503L8.80715 41.4503L8.31885 41.3428ZM90.5 38.4248C90.5 39.3761 90.3957 40.314 90.1928 41.2353L91.1695 41.4503C91.3875 40.4597 91.5 39.4498 91.5 38.4248H90.5ZM49.5 15.5C60.89 15.5 71.1771 18.107 78.5992 22.2964C86.0365 26.4944 90.5 32.2162 90.5 38.4248H91.5C91.5 31.6962 86.6734 25.7056 79.0907 21.4255C71.4927 17.1368 61.0298 14.5 49.5 14.5V15.5ZM8.5 38.4248C8.5 32.2162 12.9635 26.4944 20.4008 22.2964C27.8229 18.107 38.11 15.5 49.5 15.5V14.5C37.9702 14.5 27.5073 17.1368 19.9093 21.4255C12.3266 25.7056 7.5 31.6962 7.5 38.4248H8.5ZM8.80715 41.2353C8.60433 40.314 8.5 39.3761 8.5 38.4248H7.5C7.5 39.4498 7.61246 40.4597 7.83054 41.4503L8.80715 41.2353ZM8.80715 41.4503C10.0336 35.8792 14.884 30.8501 22.1497 27.2012C29.401 23.5595 38.9812 21.336 49.5 21.336V20.336C38.8496 20.336 29.1116 22.5858 21.7009 26.3075C14.3045 30.0221 9.14894 35.2463 7.83054 41.2353L8.80715 41.4503ZM49.5 21.336C60.0188 21.336 69.599 23.5595 76.8503 27.2012C84.116 30.8501 88.9664 35.8792 90.1928 41.4503L91.1695 41.2353C89.8511 35.2463 84.6955 30.0221 77.2991 26.3076C69.8884 22.5858 60.1504 20.336 49.5 20.336V21.336Z" fill="black"/>
<path fill-rule="evenodd" clip-rule="evenodd" d="M29.6229 74.3485C30.4303 80.236 39.0213 84.8693 49.5004 84.8693C60.089 84.8693 68.7499 80.1386 69.4006 74.1636C63.4544 77.37 56.6151 79.1953 49.3383 79.1953C42.2026 79.1953 35.4876 77.4401 29.6229 74.3485Z" fill="#D9D9D9"/>
<path d="M29.6229 74.3485L29.8561 73.9062L28.9954 73.4525L29.1276 74.4165L29.6229 74.3485ZM69.4006 74.1636L69.8977 74.2177L70.0007 73.2719L69.1633 73.7235L69.4006 74.1636ZM49.5004 84.3693C44.3294 84.3693 39.645 83.2253 36.1697 81.3753C32.6804 79.518 30.491 76.9985 30.1183 74.2806L29.1276 74.4165C29.5622 77.5861 32.072 80.3269 35.6998 82.2581C39.3417 84.1967 44.1923 85.3693 49.5004 85.3693V84.3693ZM68.9035 74.1094C68.6035 76.8645 66.4394 79.4256 62.9395 81.3172C59.4537 83.2012 54.7256 84.3693 49.5004 84.3693V85.3693C54.8638 85.3693 59.7604 84.1721 63.4149 82.1969C67.0553 80.2294 69.547 77.4377 69.8977 74.2177L68.9035 74.1094ZM69.1633 73.7235C63.2886 76.8914 56.5306 78.6953 49.3383 78.6953V79.6953C56.6995 79.6953 63.6202 77.8487 69.6379 74.6037L69.1633 73.7235ZM49.3383 78.6953C42.2854 78.6953 35.6503 76.9606 29.8561 73.9062L29.3898 74.7908C35.325 77.9196 42.1199 79.6953 49.3383 79.6953V78.6953Z" fill="black"/>
<path fill-rule="evenodd" clip-rule="evenodd" d="M91 38.7111C91 61.0489 72.4198 79.1574 49.5 79.1574C26.5802 79.1574 8 61.0489 8 38.7111C8 38.6426 8.00017 38.5741 8.00052 38.5057C8.114 51.3881 26.6505 61.8115 49.5 61.8115C72.3495 61.8115 90.886 51.3881 90.9995 38.5057C90.9998 38.5741 91 38.6426 91 38.7111Z" fill="#F0F0F0"/>
<path d="M8.00052 38.5058L8.5005 38.5014L7.50053 38.5032L8.00052 38.5058ZM90.9995 38.5058L91.4995 38.5032L90.4995 38.5014L90.9995 38.5058ZM49.5 79.6575C72.6838 79.6575 91.5 61.3372 91.5 38.7112H90.5C90.5 60.7608 72.1559 78.6575 49.5 78.6575V79.6575ZM7.5 38.7112C7.5 61.3372 26.3162 79.6575 49.5 79.6575V78.6575C26.8441 78.6575 8.5 60.7608 8.5 38.7112H7.5ZM7.50053 38.5032C7.50018 38.5725 7.5 38.6418 7.5 38.7112H8.5C8.5 38.6435 8.50017 38.5759 8.50052 38.5083L7.50053 38.5032ZM49.5 61.3116C38.145 61.3116 27.886 58.7206 20.4691 54.5537C13.0369 50.3781 8.55497 44.6844 8.5005 38.5014L7.50054 38.5102C7.55955 45.2096 12.4026 51.1688 19.9793 55.4255C27.5715 59.6909 38.0055 62.3116 49.5 62.3116V61.3116ZM90.4995 38.5014C90.445 44.6844 85.9631 50.3781 78.5309 54.5537C71.114 58.7206 60.855 61.3116 49.5 61.3116V62.3116C60.9945 62.3116 71.4285 59.6909 79.0207 55.4255C86.5974 51.1688 91.4404 45.2096 91.4995 38.5102L90.4995 38.5014ZM91.5 38.7112C91.5 38.6418 91.4998 38.5725 91.4995 38.5032L90.4995 38.5083C90.4998 38.5759 90.5 38.6435 90.5 38.7112H91.5Z" fill="black"/>
</svg>
