<svg width="122" height="103" viewBox="0 0 122 103" fill="none" xmlns="http://www.w3.org/2000/svg">
<ellipse cx="60.9907" cy="34.8619" rx="59.9907" ry="33.8619" fill="#FAEFE3" stroke="black"/>
<path fill-rule="evenodd" clip-rule="evenodd" d="M120.521 39.08C120.825 37.6981 120.981 36.2904 120.981 34.8619C120.981 16.1605 94.1227 1 60.9907 1C27.8588 1 1 16.1605 1 34.8619C1 36.2904 1.15669 37.6981 1.4609 39.08C5.13954 22.3692 30.3894 9.43619 60.9907 9.43619C91.5921 9.43619 116.842 22.3692 120.521 39.08Z" fill="#E2E2E2"/>
<path d="M120.521 39.08L120.032 39.1875L121.009 39.1875L120.521 39.08ZM1.4609 39.08L0.972593 39.1875L1.94921 39.1875L1.4609 39.08ZM120.481 34.8619C120.481 36.2536 120.329 37.6253 120.032 38.9726L121.009 39.1875C121.321 37.771 121.481 36.3272 121.481 34.8619H120.481ZM60.9907 1.5C77.4868 1.5 92.3966 5.27521 103.165 11.3534C113.948 17.4402 120.481 25.7712 120.481 34.8619H121.481C121.481 25.2512 114.585 16.6513 103.656 10.4825C92.7122 4.30505 77.6266 0.5 60.9907 0.5V1.5ZM1.5 34.8619C1.5 25.7712 8.0331 17.4402 18.8167 11.3534C29.5849 5.27521 44.4946 1.5 60.9907 1.5V0.5C44.3548 0.5 29.2692 4.30505 18.3251 10.4825C7.39627 16.6513 0.5 25.2512 0.5 34.8619H1.5ZM1.94921 38.9726C1.65263 37.6253 1.5 36.2536 1.5 34.8619H0.5C0.5 36.3272 0.660757 37.771 0.972593 39.1875L1.94921 38.9726ZM1.94921 39.1875C3.74253 31.0411 10.8221 23.7277 21.3542 18.4384C31.8719 13.1563 45.7558 9.93619 60.9907 9.93619V8.93619C45.6243 8.93619 31.5826 12.1826 20.9054 17.5447C10.2426 22.8997 2.85791 30.4082 0.972593 38.9726L1.94921 39.1875ZM60.9907 9.93619C76.2256 9.93619 90.1095 13.1563 100.627 18.4384C111.159 23.7277 118.239 31.0411 120.032 39.1875L121.009 38.9726C119.124 30.4082 111.739 22.8997 101.076 17.5447C90.3989 12.1826 76.3572 8.93619 60.9907 8.93619V9.93619Z" fill="black"/>
<path fill-rule="evenodd" clip-rule="evenodd" d="M32.2567 86.792C33.4239 95.3025 45.8427 102 60.9907 102C76.2971 102 88.8169 95.1618 89.7576 86.5245C81.1621 91.1597 71.2754 93.7982 60.7564 93.7982C50.4414 93.7982 40.7344 91.261 32.2567 86.792Z" fill="#D9D9D9"/>
<path d="M32.2567 86.792L32.4899 86.3497L31.6291 85.8959L31.7614 86.8599L32.2567 86.792ZM89.7576 86.5245L90.2547 86.5787L90.3577 85.6329L89.5203 86.0844L89.7576 86.5245ZM60.9907 101.5C53.4852 101.5 46.6766 99.8401 41.6158 97.1462C36.541 94.4448 33.3047 90.7534 32.7521 86.724L31.7614 86.8599C32.3759 91.3411 35.9326 95.2538 41.146 98.0289C46.3734 100.811 53.3482 102.5 60.9907 102.5V101.5ZM89.2606 86.4704C88.8155 90.5566 85.6142 94.3102 80.5235 97.0615C75.4471 99.8051 68.5748 101.5 60.9907 101.5V102.5C68.713 102.5 75.7538 100.776 80.999 97.9412C86.2301 95.114 89.759 91.1298 90.2547 86.5787L89.2606 86.4704ZM89.5203 86.0844C80.9963 90.681 71.191 93.2982 60.7564 93.2982V94.2982C71.3598 94.2982 81.3279 91.6383 89.995 86.9646L89.5203 86.0844ZM60.7564 93.2982C50.5242 93.2982 40.8971 90.7815 32.4899 86.3497L32.0236 87.2343C40.5718 91.7405 50.3586 94.2982 60.7564 94.2982V93.2982Z" fill="black"/>
<path fill-rule="evenodd" clip-rule="evenodd" d="M120.981 35.2759C120.981 67.5666 94.1227 93.7434 60.9907 93.7434C27.8588 93.7434 1 67.5666 1 35.2759C1 35.1769 1.00025 35.078 1.00076 34.9791C1.16473 53.6015 27.9603 68.6692 60.9907 68.6692C94.0211 68.6692 120.817 53.6015 120.981 34.9791C120.981 35.078 120.981 35.1769 120.981 35.2759Z" fill="#F0F0F0"/>
<path d="M1.00076 34.9791L1.50074 34.9747L0.500763 34.9766L1.00076 34.9791ZM120.981 34.9791L121.481 34.9766L120.481 34.9747L120.981 34.9791ZM60.9907 94.2434C94.3866 94.2434 121.481 67.8548 121.481 35.2759H120.481C120.481 67.2784 93.8587 93.2434 60.9907 93.2434V94.2434ZM0.5 35.2759C0.5 67.8548 27.5948 94.2434 60.9907 94.2434V93.2434C28.1227 93.2434 1.5 67.2784 1.5 35.2759H0.5ZM0.500763 34.9766C0.500255 35.0763 0.5 35.1761 0.5 35.2759H1.5C1.5 35.1778 1.50025 35.0797 1.50075 34.9817L0.500763 34.9766ZM60.9907 68.1692C44.5453 68.1692 29.6763 64.4171 18.9157 58.3716C8.13978 52.3175 1.58045 44.0277 1.50074 34.9747L0.500776 34.9835C0.585035 44.5529 7.50549 53.1081 18.4259 59.2435C29.3618 65.3874 44.4058 69.1692 60.9907 69.1692V68.1692ZM120.481 34.9747C120.401 44.0277 113.842 52.3175 103.066 58.3716C92.3051 64.4171 77.4362 68.1692 60.9907 68.1692V69.1692C77.5756 69.1692 92.6197 65.3874 103.556 59.2435C114.476 53.1081 121.396 44.5529 121.481 34.9835L120.481 34.9747ZM121.481 35.2759C121.481 35.1761 121.481 35.0763 121.481 34.9766L120.481 34.9817C120.481 35.0797 120.481 35.1778 120.481 35.2759H121.481Z" fill="black"/>
</svg>
