<svg width="325" height="322" viewBox="0 0 325 322" fill="none" xmlns="http://www.w3.org/2000/svg">
<path fill-rule="evenodd" clip-rule="evenodd" d="M320 161C320 248.813 248.813 320 161 320C126.322 320 94.2378 308.899 68.106 290.056L66.4095 291.297C92.9653 310.609 125.652 322 161 322C249.918 322 322 249.918 322 161C322 143.284 319.138 126.236 313.852 110.293L312.155 111.534C317.247 127.103 320 143.73 320 161ZM12.4862 223.275L14.1467 222.06C6.32086 203.26 2 182.634 2 161C2 73.1867 73.1867 2 161 2C200.119 2 235.939 16.1275 263.636 39.5588L265.296 38.3444C237.2 14.4311 200.786 0 161 0C72.0822 0 0 72.0822 0 161C0 183.078 4.44396 204.118 12.4862 223.275Z" fill="black"/>
<line x1="277" y1="48" x2="308" y2="48" stroke="black" stroke-width="2" stroke-linecap="round"/>
<line x1="240" y1="77" x2="258" y2="77" stroke="black" stroke-width="2" stroke-linecap="round"/>
<line x1="306" y1="98" x2="324" y2="98" stroke="black" stroke-width="2" stroke-linecap="round"/>
<line x1="313" y1="48" x2="323" y2="48" stroke="black" stroke-width="2" stroke-linecap="round"/>
<line x1="265" y1="77" x2="291" y2="77" stroke="black" stroke-width="2" stroke-linecap="round"/>
<line x1="279" y1="98" x2="301" y2="98" stroke="black" stroke-width="2" stroke-linecap="round"/>
<line x1="278" y1="89" x2="291" y2="89" stroke="black" stroke-width="2"/>
<line x1="277" y1="60" x2="307" y2="60" stroke="black" stroke-width="2"/>
<line x1="265" y1="69" x2="307" y2="69" stroke="black" stroke-width="2" stroke-linecap="round"/>
<line x1="31" y1="217" x2="70" y2="217" stroke="black" stroke-width="2" stroke-linecap="round"/>
<line x1="16" y1="251" x2="47.3846" y2="251" stroke="black" stroke-width="2" stroke-linecap="round"/>
<line x1="33.8846" y1="277" x2="60.5" y2="277" stroke="black" stroke-width="2" stroke-linecap="round"/>
<line x1="32.8846" y1="266" x2="48.3846" y2="266" stroke="black" stroke-width="2"/>
<line x1="31.6923" y1="231" x2="67.4615" y2="231" stroke="black" stroke-width="2"/>
<line x1="16" y1="242" x2="66.4615" y2="242" stroke="black" stroke-width="2" stroke-linecap="round"/>
<path fill-rule="evenodd" clip-rule="evenodd" d="M277 47C273.134 47 270 50.134 270 54C270 57.866 273.134 61 277 61V59C274.239 59 272 56.7614 272 54C272 51.2386 274.239 49 277 49V47Z" fill="black"/>
<path fill-rule="evenodd" clip-rule="evenodd" d="M31.6924 216C31.6924 216 31.6924 216 31.6923 216C27.0829 216 23.3462 219.582 23.3462 224C23.3462 228.418 27.0829 232 31.6923 232C31.6924 232 31.6924 232 31.6924 232V230C31.6924 230 31.6924 230 31.6923 230C28.1068 230 25.3462 227.235 25.3462 224C25.3462 220.765 28.1068 218 31.6923 218C31.6924 218 31.6924 218 31.6924 218V216Z" fill="black"/>
<path fill-rule="evenodd" clip-rule="evenodd" d="M66.4615 242.974C66.6579 242.991 66.8568 243 67.0577 243C70.6794 243 73.6154 240.09 73.6154 236.5C73.6154 232.91 70.6794 230 67.0577 230C66.8568 230 66.6579 230.009 66.4615 230.026V232.038C66.6565 232.013 66.8555 232 67.0577 232C69.5916 232 71.6154 234.031 71.6154 236.5C71.6154 238.969 69.5916 241 67.0577 241C66.8555 241 66.6565 240.987 66.4615 240.962V242.974Z" fill="black"/>
<path fill-rule="evenodd" clip-rule="evenodd" d="M47 266.965C47.2412 266.988 47.4856 267 47.7325 267C52.1826 267 55.7902 263.194 55.7902 258.5C55.7902 253.806 52.1826 250 47.7325 250C47.4856 250 47.2412 250.012 47 250.035V252.048C47.2409 252.016 47.4855 252 47.7325 252C50.9787 252 53.7902 254.808 53.7902 258.5C53.7902 262.192 50.9787 265 47.7325 265C47.4855 265 47.2409 264.984 47 264.952V266.965Z" fill="black"/>
<path fill-rule="evenodd" clip-rule="evenodd" d="M291 90C294.866 90 298 86.866 298 83C298 79.134 294.866 76 291 76V78C293.761 78 296 80.2386 296 83C296 85.7614 293.761 88 291 88V90Z" fill="black"/>
<path fill-rule="evenodd" clip-rule="evenodd" d="M279 88.0224C278.835 88.0076 278.669 88 278.5 88C275.462 88 273 90.4624 273 93.5C273 96.5376 275.462 99 278.5 99C278.669 99 278.835 98.9924 279 98.9776V96.9646C278.837 96.9879 278.67 97 278.5 97C276.567 97 275 95.433 275 93.5C275 91.567 276.567 90 278.5 90C278.67 90 278.837 90.0121 279 90.0354V88.0224Z" fill="black"/>
<path fill-rule="evenodd" clip-rule="evenodd" d="M34.0769 265.026C33.8806 265.009 33.6817 265 33.4808 265C29.8591 265 26.9231 267.91 26.9231 271.5C26.9231 275.09 29.8591 278 33.4808 278C33.6817 278 33.8806 277.991 34.0769 277.974V275.962C33.882 275.987 33.683 276 33.4808 276C30.9469 276 28.9231 273.969 28.9231 271.5C28.9231 269.031 30.9469 267 33.4808 267C33.683 267 33.882 267.013 34.0769 267.038V265.026Z" fill="black"/>
<path fill-rule="evenodd" clip-rule="evenodd" d="M307 70C310.038 70 312.5 67.5376 312.5 64.5C312.5 61.4624 310.038 59 307 59V61C308.933 61 310.5 62.567 310.5 64.5C310.5 66.433 308.933 68 307 68V70Z" fill="black"/>
<line x1="73" y1="217" x2="77" y2="217" stroke="black" stroke-width="2"/>
<line x1="65" y1="277" x2="71" y2="277" stroke="black" stroke-width="2" stroke-linecap="round"/>
<line x1="4" y1="251" x2="12" y2="251" stroke="black" stroke-width="2" stroke-linecap="round"/>
</svg>
