<svg width="20" height="26" viewBox="0 0 20 26" fill="none" xmlns="http://www.w3.org/2000/svg">
<path d="M10 19.8095C10.663 19.8095 11.2989 19.5486 11.7678 19.0843C12.2366 18.6199 12.5 17.9901 12.5 17.3333C12.5 15.959 11.375 14.8571 10 14.8571C9.33696 14.8571 8.70107 15.118 8.23223 15.5824C7.76339 16.0468 7.5 16.6766 7.5 17.3333C7.5 17.9901 7.76339 18.6199 8.23223 19.0843C8.70107 19.5486 9.33696 19.8095 10 19.8095ZM17.5 8.66667C18.163 8.66667 18.7989 8.92755 19.2678 9.39193C19.7366 9.8563 20 10.4861 20 11.1429V23.5238C20 24.1805 19.7366 24.8104 19.2678 25.2747C18.7989 25.7391 18.163 26 17.5 26H2.5C1.83696 26 1.20107 25.7391 0.732233 25.2747C0.263392 24.8104 0 24.1805 0 23.5238V11.1429C0 9.76857 1.125 8.66667 2.5 8.66667H3.75V6.19048C3.75 4.54866 4.40848 2.97409 5.58058 1.81315C6.75269 0.652209 8.3424 0 10 0C10.8208 0 11.6335 0.160121 12.3918 0.471222C13.1501 0.782323 13.8391 1.23831 14.4194 1.81315C14.9998 2.38799 15.4602 3.07042 15.7742 3.82148C16.0883 4.57255 16.25 5.37753 16.25 6.19048V8.66667H17.5ZM10 2.47619C9.00544 2.47619 8.05161 2.86752 7.34835 3.56408C6.64509 4.26064 6.25 5.20539 6.25 6.19048V8.66667H13.75V6.19048C13.75 5.20539 13.3549 4.26064 12.6517 3.56408C11.9484 2.86752 10.9946 2.47619 10 2.47619Z" fill="black"/>
</svg>
