<svg width="13" height="13" viewBox="0 0 13 13" fill="none" xmlns="http://www.w3.org/2000/svg">
<path d="M8.00222 9.09278L9.87278 7.22222H2.88889V5.77778H9.87278L8.00222 3.90722L9.02778 2.88889L12.6389 6.5L9.02778 10.1111L8.00222 9.09278ZM11.5556 0C11.9386 0 12.306 0.152182 12.5769 0.423068C12.8478 0.693954 13 1.06135 13 1.44444V4.81722L11.5556 3.37278V1.44444H1.44444V11.5556H11.5556V9.62722L13 8.18278V11.5556C13 11.9386 12.8478 12.306 12.5769 12.5769C12.306 12.8478 11.9386 13 11.5556 13H1.44444C0.642778 13 0 12.35 0 11.5556V1.44444C0 0.642778 0.642778 0 1.44444 0H11.5556Z" fill="black"/>
</svg>
