<svg width="325" height="322" viewBox="0 0 325 322" fill="none" xmlns="http://www.w3.org/2000/svg">
<path fill-rule="evenodd" clip-rule="evenodd" d="M320 161C320 248.813 248.813 320 161 320C126.322 320 94.2378 308.899 68.106 290.056L66.4095 291.297C92.9653 310.609 125.652 322 161 322C249.918 322 322 249.918 322 161C322 143.284 319.138 126.236 313.852 110.293L312.155 111.534C317.247 127.103 320 143.73 320 161ZM12.4862 223.275L14.1467 222.06C6.32086 203.26 2 182.634 2 161C2 73.1867 73.1867 2 161 2C200.119 2 235.939 16.1275 263.636 39.5588L265.296 38.3444C237.2 14.4311 200.786 0 161 0C72.0822 0 0 72.0822 0 161C0 183.078 4.44396 204.118 12.4862 223.275Z" fill="black"/>
<line x1="277" y1="48" x2="308" y2="48" stroke="black" stroke-width="2" stroke-linecap="round"/>
<line x1="240" y1="77" x2="258" y2="77" stroke="black" stroke-width="2" stroke-linecap="round"/>
<line x1="306" y1="98" x2="324" y2="98" stroke="black" stroke-width="2" stroke-linecap="round"/>
<line x1="313" y1="48" x2="323" y2="48" stroke="black" stroke-width="2" stroke-linecap="round"/>
<line x1="265" y1="77" x2="291" y2="77" stroke="black" stroke-width="2" stroke-linecap="round"/>
<line x1="279" y1="98" x2="301" y2="98" stroke="black" stroke-width="2" stroke-linecap="round"/>
<line x1="278" y1="89" x2="291" y2="89" stroke="black" stroke-width="2"/>
<line x1="277" y1="60" x2="307" y2="60" stroke="black" stroke-width="2"/>
<line x1="265" y1="69" x2="307" y2="69" stroke="black" stroke-width="2" stroke-linecap="round"/>
<line x1="31" y1="217" x2="70" y2="217" stroke="black" stroke-width="2" stroke-linecap="round"/>
<line x1="16" y1="251" x2="47.3846" y2="251" stroke="black" stroke-width="2" stroke-linecap="round"/>
<line x1="33.8848" y1="277" x2="60.5002" y2="277" stroke="black" stroke-width="2" stroke-linecap="round"/>
<line x1="32.8848" y1="266" x2="48.3848" y2="266" stroke="black" stroke-width="2"/>
<line x1="31.6924" y1="231" x2="67.4616" y2="231" stroke="black" stroke-width="2"/>
<line x1="16" y1="242" x2="66.4615" y2="242" stroke="black" stroke-width="2" stroke-linecap="round"/>
<path fill-rule="evenodd" clip-rule="evenodd" d="M277 47C273.134 47 270 50.134 270 54C270 57.866 273.134 61 277 61V59C274.239 59 272 56.7614 272 54C272 51.2386 274.239 49 277 49V47Z" fill="black"/>
<path fill-rule="evenodd" clip-rule="evenodd" d="M31.6924 216C31.6924 216 31.6924 216 31.6923 216C27.0829 216 23.3462 219.582 23.3462 224C23.3462 228.418 27.0829 232 31.6923 232C31.6924 232 31.6924 232 31.6924 232V230C31.6924 230 31.6924 230 31.6923 230C28.1068 230 25.3462 227.235 25.3462 224C25.3462 220.765 28.1068 218 31.6923 218C31.6924 218 31.6924 218 31.6924 218V216Z" fill="black"/>
<path fill-rule="evenodd" clip-rule="evenodd" d="M66.4614 242.974C66.6578 242.991 66.8566 243 67.0576 243C70.6793 243 73.6153 240.09 73.6153 236.5C73.6153 232.91 70.6793 230 67.0576 230C66.8566 230 66.6578 230.009 66.4614 230.026V232.038C66.6564 232.013 66.8554 232 67.0576 232C69.5914 232 71.6153 234.031 71.6153 236.5C71.6153 238.969 69.5914 241 67.0576 241C66.8554 241 66.6564 240.987 66.4614 240.962V242.974Z" fill="black"/>
<path fill-rule="evenodd" clip-rule="evenodd" d="M47 266.965C47.2413 266.988 47.4856 267 47.7325 267C52.1827 267 55.7902 263.194 55.7902 258.5C55.7902 253.806 52.1827 250 47.7325 250C47.4856 250 47.2413 250.012 47 250.035V252.048C47.241 252.016 47.4855 252 47.7325 252C50.9788 252 53.7902 254.808 53.7902 258.5C53.7902 262.192 50.9788 265 47.7325 265C47.4855 265 47.241 264.984 47 264.952V266.965Z" fill="black"/>
<path fill-rule="evenodd" clip-rule="evenodd" d="M291 90C294.866 90 298 86.866 298 83C298 79.134 294.866 76 291 76V78C293.761 78 296 80.2386 296 83C296 85.7614 293.761 88 291 88V90Z" fill="black"/>
<path fill-rule="evenodd" clip-rule="evenodd" d="M279 88.0224C278.835 88.0076 278.669 88 278.5 88C275.462 88 273 90.4624 273 93.5C273 96.5376 275.462 99 278.5 99C278.669 99 278.835 98.9924 279 98.9776V96.9646C278.837 96.9879 278.67 97 278.5 97C276.567 97 275 95.433 275 93.5C275 91.567 276.567 90 278.5 90C278.67 90 278.837 90.0121 279 90.0354V88.0224Z" fill="black"/>
<path fill-rule="evenodd" clip-rule="evenodd" d="M34.0769 265.026C33.8806 265.009 33.6817 265 33.4808 265C29.8591 265 26.9231 267.91 26.9231 271.5C26.9231 275.09 29.8591 278 33.4808 278C33.6817 278 33.8806 277.991 34.0769 277.974V275.962C33.882 275.987 33.683 276 33.4808 276C30.9469 276 28.9231 273.969 28.9231 271.5C28.9231 269.031 30.9469 267 33.4808 267C33.683 267 33.882 267.013 34.0769 267.038V265.026Z" fill="black"/>
<path fill-rule="evenodd" clip-rule="evenodd" d="M307 70C310.038 70 312.5 67.5376 312.5 64.5C312.5 61.4624 310.038 59 307 59V61C308.933 61 310.5 62.567 310.5 64.5C310.5 66.433 308.933 68 307 68V70Z" fill="black"/>
<line x1="73" y1="217" x2="77" y2="217" stroke="black" stroke-width="2"/>
<line x1="65" y1="277" x2="71" y2="277" stroke="black" stroke-width="2" stroke-linecap="round"/>
<line x1="4" y1="251" x2="12" y2="251" stroke="black" stroke-width="2" stroke-linecap="round"/>
<path d="M95.584 183.92C95.1173 183.92 94.8187 183.677 94.688 183.192C94.576 182.707 94.52 182.156 94.52 181.54V176.08C94.52 175.427 94.4733 174.857 94.38 174.372C94.3053 173.887 94.2213 173.551 94.128 173.364C94.072 173.252 94.072 173.159 94.128 173.084C94.184 173.009 94.2493 172.972 94.324 172.972C94.436 172.972 94.6413 172.981 94.94 173C95.2573 173.019 95.5747 173.028 95.892 173.028C96.3773 173.028 96.9747 173.009 97.684 172.972C98.3933 172.916 98.9627 172.832 99.392 172.72C99.448 172.701 99.5133 172.711 99.588 172.748C99.6627 172.767 99.7093 172.823 99.728 172.916C99.7653 173.065 99.7933 173.243 99.812 173.448C99.8307 173.653 99.8493 173.831 99.868 173.98C99.9053 174.185 99.7933 174.288 99.532 174.288C98.8787 174.288 98.3 174.297 97.796 174.316C97.3107 174.316 96.7787 174.335 96.2 174.372V181.288C96.2 181.643 96.2187 181.913 96.256 182.1C96.2933 182.287 96.4147 182.371 96.62 182.352C97.2173 182.315 97.936 182.165 98.776 181.904C99.616 181.643 100.428 181.325 101.212 180.952V175.94C101.212 174.577 101.128 173.681 100.96 173.252C100.923 173.14 100.923 173.047 100.96 172.972C101.016 172.897 101.081 172.86 101.156 172.86C101.268 172.86 101.464 172.869 101.744 172.888C102.024 172.888 102.304 172.888 102.584 172.888C103.013 172.888 103.545 172.879 104.18 172.86C104.815 172.841 105.431 172.813 106.028 172.776C106.625 172.72 107.073 172.655 107.372 172.58C107.428 172.561 107.493 172.571 107.568 172.608C107.643 172.627 107.689 172.683 107.708 172.776L107.876 173.84C107.913 174.045 107.801 174.148 107.54 174.148C107.409 174.148 107.279 174.148 107.148 174.148C107.017 174.148 106.877 174.148 106.728 174.148C106.131 174.148 105.487 174.148 104.796 174.148C104.124 174.148 103.489 174.167 102.892 174.204V181.232C102.892 181.661 102.92 181.941 102.976 182.072C103.032 182.184 103.181 182.24 103.424 182.24C103.928 182.24 104.497 182.193 105.132 182.1C105.785 181.988 106.429 181.848 107.064 181.68C107.717 181.512 108.277 181.335 108.744 181.148C108.893 181.073 108.987 181.12 109.024 181.288L109.136 182.072C109.173 182.277 109.071 182.436 108.828 182.548C108.455 182.697 107.988 182.856 107.428 183.024C106.868 183.173 106.271 183.313 105.636 183.444C105.02 183.575 104.423 183.687 103.844 183.78C103.265 183.855 102.771 183.892 102.36 183.892C102.043 183.892 101.791 183.733 101.604 183.416C101.436 183.099 101.324 182.725 101.268 182.296C100.689 182.576 100.055 182.837 99.364 183.08C98.692 183.304 98.02 183.491 97.348 183.64C96.6947 183.789 96.1067 183.883 95.584 183.92ZM111.544 196.1C111.469 196.1 111.432 196.053 111.432 195.96V188.848C111.432 188.717 111.413 188.633 111.376 188.596C111.357 188.559 111.264 188.54 111.096 188.54C110.667 188.54 110.069 188.549 109.304 188.568C108.539 188.587 107.727 188.615 106.868 188.652C106.009 188.671 105.197 188.699 104.432 188.736C103.685 188.755 103.116 188.773 102.724 188.792C102.257 188.829 101.744 188.867 101.184 188.904C100.643 188.941 100.139 188.979 99.672 189.016C99.4853 189.035 99.364 189.016 99.308 188.96C99.252 188.885 99.2053 188.801 99.168 188.708C99.1493 188.689 99.14 188.671 99.14 188.652L98.86 187.448C98.8413 187.411 98.8507 187.364 98.888 187.308C98.9253 187.252 98.9907 187.233 99.084 187.252C99.3827 187.289 99.924 187.317 100.708 187.336C101.511 187.355 102.425 187.364 103.452 187.364C104.479 187.345 105.515 187.317 106.56 187.28C107.605 187.243 108.548 187.196 109.388 187.14C110.228 187.065 110.835 186.981 111.208 186.888C111.227 186.888 111.255 186.879 111.292 186.86C111.329 186.86 111.367 186.86 111.404 186.86C111.441 186.841 111.507 186.841 111.6 186.86L113.252 187.112C113.345 187.131 113.392 187.168 113.392 187.224C113.411 187.261 113.42 187.299 113.42 187.336C113.42 187.355 113.42 187.364 113.42 187.364C113.364 187.887 113.317 188.419 113.28 188.96C113.261 189.501 113.252 189.996 113.252 190.444L113.224 195.568C113.224 195.792 113.177 195.923 113.084 195.96C113.009 195.997 112.925 196.025 112.832 196.044L111.544 196.1ZM111.656 185.348C111.581 185.348 111.544 185.301 111.544 185.208V178.04C111.357 178.059 111.171 178.068 110.984 178.068C110.797 178.068 110.629 178.077 110.48 178.096C110.032 178.115 109.519 178.161 108.94 178.236C108.361 178.292 107.848 178.348 107.4 178.404C107.195 178.441 107.055 178.432 106.98 178.376C106.905 178.32 106.849 178.236 106.812 178.124C106.737 177.881 106.672 177.657 106.616 177.452C106.579 177.228 106.541 177.023 106.504 176.836C106.504 176.687 106.579 176.631 106.728 176.668C106.971 176.687 107.353 176.705 107.876 176.724C108.399 176.743 108.987 176.752 109.64 176.752C110.293 176.733 110.928 176.715 111.544 176.696V173.896C111.544 173.187 111.516 172.533 111.46 171.936C111.423 171.339 111.357 170.947 111.264 170.76C111.227 170.667 111.227 170.601 111.264 170.564C111.32 170.508 111.385 170.48 111.46 170.48C111.647 170.48 111.917 170.48 112.272 170.48C112.645 170.48 112.981 170.489 113.28 170.508C113.373 170.508 113.42 170.583 113.42 170.732C113.364 171.423 113.327 172.029 113.308 172.552C113.308 173.056 113.308 173.644 113.308 174.316V184.648C113.308 184.928 113.289 185.096 113.252 185.152C113.233 185.208 113.177 185.245 113.084 185.264L111.656 185.348ZM135.81 196.24C135.735 196.24 135.698 196.193 135.698 196.1V188.652C135.698 188.447 135.586 188.344 135.362 188.344C134.951 188.344 134.345 188.353 133.542 188.372C132.758 188.391 131.918 188.419 131.022 188.456C130.145 188.493 129.314 188.531 128.53 188.568C127.765 188.587 127.186 188.605 126.794 188.624C126.327 188.661 125.814 188.699 125.254 188.736C124.713 188.755 124.209 188.783 123.742 188.82C123.537 188.839 123.406 188.811 123.35 188.736C123.294 188.661 123.247 188.568 123.21 188.456L122.93 187.28C122.911 187.243 122.921 187.196 122.958 187.14C122.995 187.084 123.061 187.065 123.154 187.084C123.434 187.121 123.919 187.149 124.61 187.168C125.319 187.187 126.131 187.196 127.046 187.196C127.961 187.177 128.894 187.159 129.846 187.14C129.827 186.953 129.818 186.767 129.818 186.58C129.818 186.375 129.818 186.179 129.818 185.992L129.79 182.128C129.435 182.147 129.09 182.156 128.754 182.156C128.437 182.156 128.147 182.165 127.886 182.184C126.001 182.24 124.302 182.305 122.79 182.38C121.278 182.455 120.111 182.539 119.29 182.632C119.085 182.651 118.945 182.632 118.87 182.576C118.795 182.52 118.739 182.436 118.702 182.324C118.627 182.119 118.562 181.913 118.506 181.708C118.45 181.503 118.385 181.241 118.31 180.924C118.291 180.887 118.301 180.84 118.338 180.784C118.375 180.709 118.441 180.681 118.534 180.7C119.243 180.793 120.214 180.868 121.446 180.924C122.678 180.961 124.031 180.971 125.506 180.952C126.645 180.952 127.858 180.943 129.146 180.924C130.434 180.887 131.713 180.849 132.982 180.812C134.27 180.756 135.483 180.7 136.622 180.644C137.779 180.588 138.797 180.523 139.674 180.448C140.57 180.373 141.261 180.289 141.746 180.196C141.933 180.159 142.054 180.168 142.11 180.224C142.166 180.28 142.203 180.355 142.222 180.448L142.39 181.68C142.409 181.941 142.231 182.063 141.858 182.044C141.279 182.007 140.495 181.988 139.506 181.988C138.535 181.988 137.481 181.997 136.342 182.016L131.582 182.1V185.712C131.582 186.272 131.545 186.739 131.47 187.112C132.385 187.075 133.206 187.028 133.934 186.972C134.662 186.897 135.194 186.823 135.53 186.748C135.549 186.748 135.577 186.739 135.614 186.72C135.651 186.72 135.689 186.72 135.726 186.72C135.763 186.701 135.829 186.701 135.922 186.72C136.165 186.757 136.417 186.795 136.678 186.832C136.939 186.869 137.201 186.916 137.462 186.972C137.574 186.991 137.63 187.075 137.63 187.224C137.593 187.765 137.555 188.316 137.518 188.876C137.499 189.417 137.49 189.912 137.49 190.36L137.462 195.68C137.462 195.848 137.434 195.96 137.378 196.016C137.322 196.072 137.219 196.119 137.07 196.156C136.977 196.156 136.762 196.165 136.426 196.184C136.109 196.221 135.903 196.24 135.81 196.24ZM134.774 179.44C134.606 179.44 134.55 179.347 134.606 179.16C134.718 178.824 134.83 178.385 134.942 177.844C135.073 177.284 135.194 176.696 135.306 176.08C135.418 175.464 135.511 174.885 135.586 174.344C135.679 173.784 135.735 173.336 135.754 173C135.773 172.795 135.679 172.692 135.474 172.692C135.063 172.692 134.503 172.701 133.794 172.72C133.103 172.739 132.357 172.757 131.554 172.776C130.77 172.795 130.023 172.813 129.314 172.832C128.623 172.851 128.082 172.869 127.69 172.888C127.391 172.888 127.009 172.907 126.542 172.944C126.075 172.981 125.609 173.019 125.142 173.056C124.675 173.093 124.293 173.131 123.994 173.168C123.789 173.187 123.658 173.177 123.602 173.14C123.546 173.084 123.49 172.981 123.434 172.832C123.434 172.813 123.434 172.804 123.434 172.804C123.378 172.655 123.322 172.487 123.266 172.3C123.21 172.113 123.145 171.889 123.07 171.628C123.051 171.591 123.061 171.544 123.098 171.488C123.135 171.432 123.201 171.413 123.294 171.432C123.817 171.469 124.507 171.497 125.366 171.516C126.225 171.535 127.158 171.535 128.166 171.516C129.174 171.497 130.173 171.469 131.162 171.432C132.151 171.395 133.047 171.348 133.85 171.292C134.653 171.217 135.269 171.133 135.698 171.04C135.847 171.003 135.997 171.003 136.146 171.04L137.714 171.376C137.882 171.395 137.947 171.497 137.91 171.684L137.49 173.952C137.322 174.904 137.135 175.809 136.93 176.668C136.743 177.508 136.575 178.143 136.426 178.572C136.351 178.833 136.277 179.029 136.202 179.16C136.146 179.272 136.015 179.337 135.81 179.356L134.774 179.44ZM155.789 184.2C155.752 184.2 155.705 184.191 155.649 184.172C155.593 184.153 155.565 184.097 155.565 184.004C155.565 183.985 155.565 183.948 155.565 183.892C155.565 183.78 155.565 183.593 155.565 183.332C155.565 183.071 155.556 182.669 155.537 182.128C155.518 181.587 155.49 180.831 155.453 179.86C155.434 178.889 155.397 177.648 155.341 176.136C155.322 175.632 155.266 175.128 155.173 174.624C155.098 174.101 155.005 173.765 154.893 173.616C154.818 173.504 154.8 173.401 154.837 173.308C154.893 173.215 154.986 173.177 155.117 173.196C155.416 173.215 155.714 173.233 156.013 173.252C156.33 173.252 156.638 173.252 156.937 173.252C157.814 173.252 158.738 173.233 159.709 173.196C160.68 173.159 161.557 173.112 162.341 173.056C163.125 172.981 163.666 172.925 163.965 172.888C164.002 172.888 164.04 172.879 164.077 172.86C164.208 172.841 164.32 172.841 164.413 172.86L165.869 173.14C166 173.177 166.056 173.289 166.037 173.476C166 173.737 165.962 174.064 165.925 174.456C165.888 174.829 165.86 175.193 165.841 175.548C165.822 175.884 165.804 176.136 165.785 176.304C165.729 177.443 165.682 178.656 165.645 179.944C165.608 181.213 165.57 182.408 165.533 183.528C165.533 183.789 165.393 183.911 165.113 183.892C164.926 183.873 164.59 183.864 164.105 183.864C163.62 183.864 163.05 183.873 162.397 183.892C161.744 183.911 161.072 183.939 160.381 183.976C159.69 183.995 159.037 184.013 158.421 184.032C157.824 184.051 157.329 184.069 156.937 184.088C156.75 184.107 156.526 184.135 156.265 184.172C156.004 184.191 155.845 184.2 155.789 184.2ZM157.189 182.576C157.506 182.576 157.973 182.576 158.589 182.576C159.205 182.557 159.858 182.539 160.549 182.52C161.258 182.483 161.921 182.455 162.537 182.436C163.153 182.399 163.62 182.361 163.937 182.324L164.021 174.68C164.021 174.493 163.937 174.4 163.769 174.4L157.021 174.652L157.189 182.576ZM170.993 188.82C170.918 188.82 170.881 188.773 170.881 188.68V173.896C170.881 173.187 170.853 172.533 170.797 171.936C170.76 171.339 170.694 170.947 170.601 170.76C170.564 170.667 170.564 170.601 170.601 170.564C170.657 170.508 170.722 170.48 170.797 170.48C171.058 170.48 171.366 170.48 171.721 170.48C172.076 170.48 172.374 170.489 172.617 170.508C172.71 170.508 172.757 170.583 172.757 170.732C172.701 171.423 172.664 172.029 172.645 172.552C172.645 173.056 172.645 173.644 172.645 174.316V178.544C173.168 178.544 173.728 178.525 174.325 178.488C174.922 178.451 175.473 178.404 175.977 178.348C176.5 178.292 176.882 178.227 177.125 178.152C177.293 178.133 177.386 178.189 177.405 178.32C177.442 178.563 177.461 178.805 177.461 179.048C177.48 179.291 177.498 179.533 177.517 179.776C177.517 179.981 177.433 180.084 177.265 180.084C177.004 180.047 176.602 180.028 176.061 180.028C175.538 180.009 174.969 180 174.353 180C173.737 180 173.168 180.019 172.645 180.056V188.12C172.645 188.4 172.626 188.568 172.589 188.624C172.57 188.68 172.514 188.717 172.421 188.736L170.993 188.82ZM161.977 195.4C161.38 195.4 160.922 195.176 160.605 194.728C160.306 194.299 160.157 193.683 160.157 192.88V190.388C160.157 189.735 160.129 189.193 160.073 188.764C160.017 188.335 159.961 188.027 159.905 187.84C159.849 187.653 159.914 187.56 160.101 187.56C160.213 187.56 160.4 187.569 160.661 187.588C160.941 187.588 161.202 187.597 161.445 187.616C161.706 187.635 161.846 187.644 161.865 187.644C161.958 187.644 162.005 187.737 162.005 187.924C161.968 188.353 161.94 188.736 161.921 189.072C161.921 189.389 161.921 189.791 161.921 190.276V192.712C161.921 193.179 161.977 193.505 162.089 193.692C162.22 193.86 162.425 193.953 162.705 193.972C163.228 193.991 163.862 194 164.609 194C165.374 194.019 166.168 194.019 166.989 194C167.829 193.963 168.622 193.925 169.369 193.888C170.153 193.851 170.965 193.785 171.805 193.692C172.645 193.58 173.289 193.468 173.737 193.356C173.924 193.319 174.045 193.328 174.101 193.384C174.157 193.44 174.194 193.515 174.213 193.608L174.437 194.924C174.437 195.017 174.409 195.092 174.353 195.148C174.316 195.204 174.166 195.232 173.905 195.232C172.057 195.232 170.153 195.26 168.193 195.316C166.233 195.372 164.161 195.4 161.977 195.4ZM187.259 195.68C186.68 195.661 186.232 195.475 185.915 195.12C185.616 194.765 185.467 194.187 185.467 193.384V192.236C185.467 191.657 185.364 191.088 185.159 190.528C185.122 190.472 185.131 190.397 185.187 190.304C185.243 190.211 185.336 190.173 185.467 190.192C185.672 190.211 186.111 190.229 186.783 190.248C187.474 190.267 188.286 190.276 189.219 190.276C190.152 190.276 191.104 190.267 192.075 190.248C193.064 190.229 193.97 190.201 194.791 190.164C195.631 190.127 196.275 190.08 196.723 190.024L196.779 187.896C196.779 187.691 196.686 187.588 196.499 187.588C196.088 187.588 195.519 187.597 194.791 187.616C194.063 187.635 193.288 187.653 192.467 187.672C191.646 187.691 190.862 187.719 190.115 187.756C189.368 187.775 188.762 187.793 188.295 187.812L185.803 187.924C185.635 187.943 185.514 187.933 185.439 187.896C185.364 187.84 185.308 187.728 185.271 187.56L185.075 186.58C185.056 186.543 185.066 186.496 185.103 186.44C185.14 186.384 185.206 186.365 185.299 186.384C185.598 186.403 186.083 186.421 186.755 186.44C187.427 186.459 188.192 186.477 189.051 186.496C189.928 186.496 190.834 186.487 191.767 186.468C192.7 186.431 193.596 186.393 194.455 186.356C195.332 186.3 196.088 186.225 196.723 186.132C196.76 186.132 196.798 186.123 196.835 186.104C196.966 186.085 197.068 186.085 197.143 186.104L198.571 186.3C198.683 186.319 198.739 186.403 198.739 186.552C198.646 187.373 198.571 188.111 198.515 188.764C198.478 189.399 198.431 190.127 198.375 190.948C198.356 191.135 198.319 191.256 198.263 191.312C198.207 191.368 198.095 191.396 197.927 191.396C197.292 191.396 196.508 191.405 195.575 191.424C194.66 191.424 193.69 191.433 192.663 191.452C191.636 191.452 190.647 191.461 189.695 191.48C188.743 191.499 187.922 191.527 187.231 191.564V193.272C187.231 193.701 187.259 193.963 187.315 194.056C187.371 194.168 187.558 194.233 187.875 194.252C189.088 194.289 190.358 194.299 191.683 194.28C193.008 194.261 194.278 194.215 195.491 194.14C196.275 194.103 196.984 194.047 197.619 193.972C198.254 193.897 198.804 193.804 199.271 193.692C199.458 193.655 199.579 193.664 199.635 193.72C199.691 193.776 199.728 193.851 199.747 193.944L199.915 195.176C199.915 195.269 199.878 195.353 199.803 195.428C199.747 195.503 199.588 195.54 199.327 195.54C197.348 195.54 195.304 195.549 193.195 195.568C191.086 195.605 189.107 195.643 187.259 195.68ZM186.447 178.88C185.794 178.899 185.336 178.721 185.075 178.348C184.814 177.975 184.683 177.34 184.683 176.444V173.896C184.683 173.243 184.636 172.72 184.543 172.328C184.45 171.936 184.356 171.647 184.263 171.46C184.207 171.348 184.207 171.255 184.263 171.18C184.319 171.087 184.394 171.04 184.487 171.04C184.618 171.04 184.851 171.049 185.187 171.068C185.523 171.087 185.878 171.105 186.251 171.124C187.128 171.124 188.267 171.115 189.667 171.096C191.067 171.077 192.495 171.031 193.951 170.956C194.94 170.919 195.762 170.872 196.415 170.816C197.068 170.76 197.638 170.695 198.123 170.62C198.179 170.601 198.244 170.611 198.319 170.648C198.394 170.667 198.44 170.723 198.459 170.816C198.515 171.189 198.552 171.46 198.571 171.628C198.59 171.777 198.599 171.889 198.599 171.964C198.636 172.169 198.524 172.272 198.263 172.272C197.74 172.272 197.227 172.272 196.723 172.272C196.219 172.272 195.696 172.281 195.155 172.3L186.447 172.552V176.052C186.447 176.612 186.494 176.985 186.587 177.172C186.68 177.34 186.876 177.433 187.175 177.452C187.81 177.471 188.538 177.48 189.359 177.48C190.199 177.461 191.011 177.433 191.795 177.396C192.598 177.359 193.242 177.331 193.727 177.312C194.735 177.275 195.64 177.228 196.443 177.172C197.246 177.097 197.88 177.013 198.347 176.92C198.534 176.883 198.655 176.892 198.711 176.948C198.767 176.985 198.804 177.051 198.823 177.144C198.86 177.368 198.888 177.583 198.907 177.788C198.926 177.993 198.935 178.199 198.935 178.404C198.935 178.516 198.898 178.591 198.823 178.628C198.767 178.665 198.608 178.684 198.347 178.684C196.368 178.684 194.418 178.712 192.495 178.768C190.591 178.805 188.575 178.843 186.447 178.88ZM180.595 183.836C180.39 183.855 180.25 183.836 180.175 183.78C180.1 183.724 180.044 183.64 180.007 183.528C179.932 183.323 179.867 183.117 179.811 182.912C179.755 182.707 179.69 182.445 179.615 182.128C179.596 182.091 179.606 182.044 179.643 181.988C179.68 181.913 179.746 181.885 179.839 181.904C180.548 181.997 181.519 182.072 182.751 182.128C183.983 182.165 185.336 182.175 186.811 182.156C187.95 182.156 189.163 182.147 190.451 182.128C191.739 182.091 193.018 182.053 194.287 182.016C195.575 181.96 196.788 181.904 197.927 181.848C199.084 181.792 200.102 181.727 200.979 181.652C201.875 181.577 202.566 181.493 203.051 181.4C203.238 181.363 203.359 181.372 203.415 181.428C203.471 181.484 203.508 181.559 203.527 181.652L203.695 182.884C203.714 183.145 203.536 183.267 203.163 183.248C202.584 183.211 201.8 183.192 200.811 183.192C199.84 183.192 198.786 183.201 197.647 183.22C196.639 183.22 195.603 183.239 194.539 183.276C193.494 183.295 192.504 183.313 191.571 183.332C190.656 183.351 189.863 183.369 189.191 183.388C187.306 183.444 185.607 183.509 184.095 183.584C182.583 183.659 181.416 183.743 180.595 183.836ZM207.082 189.744L206.41 189.128C206.335 189.053 206.363 188.96 206.494 188.848C207.427 188.363 208.37 187.737 209.322 186.972C210.292 186.188 211.216 185.32 212.094 184.368C212.99 183.397 213.802 182.389 214.53 181.344C215.258 180.299 215.855 179.253 216.322 178.208C216.788 177.144 217.078 176.136 217.19 175.184C217.227 174.979 217.143 174.876 216.938 174.876L211.17 175.212L208.258 175.464C208.071 175.483 207.95 175.464 207.894 175.408C207.838 175.333 207.791 175.249 207.754 175.156C207.735 175.137 207.726 175.119 207.726 175.1C207.651 174.895 207.595 174.727 207.558 174.596C207.52 174.447 207.464 174.213 207.39 173.896C207.371 173.859 207.38 173.812 207.418 173.756C207.455 173.7 207.52 173.681 207.614 173.7C208.435 173.775 209.378 173.812 210.442 173.812C211.506 173.793 212.57 173.756 213.634 173.7C214.716 173.625 215.668 173.541 216.49 173.448C216.714 173.429 216.956 173.392 217.218 173.336C217.479 173.28 217.61 173.252 217.61 173.252C217.703 173.215 217.806 173.215 217.918 173.252L219.458 173.756C219.607 173.831 219.672 173.952 219.654 174.12L219.01 176.192C218.748 177.013 218.319 177.993 217.722 179.132C217.143 180.271 216.396 181.475 215.482 182.744C214.567 183.995 213.484 185.227 212.234 186.44C210.983 187.653 209.564 188.755 207.978 189.744C207.828 189.837 207.679 189.893 207.53 189.912C207.38 189.931 207.231 189.875 207.082 189.744ZM223.77 194.28C223.695 194.28 223.658 194.233 223.658 194.14V173.924C223.658 173.215 223.63 172.561 223.574 171.964C223.536 171.348 223.471 170.947 223.378 170.76C223.34 170.667 223.34 170.601 223.378 170.564C223.434 170.508 223.499 170.48 223.574 170.48C223.686 170.48 223.872 170.489 224.134 170.508C224.414 170.508 224.684 170.517 224.946 170.536C225.207 170.536 225.356 170.536 225.394 170.536C225.487 170.536 225.534 170.611 225.534 170.76C225.478 171.451 225.44 172.057 225.422 172.58C225.422 173.084 225.422 173.672 225.422 174.344V193.58C225.422 193.86 225.403 194.028 225.366 194.084C225.347 194.14 225.291 194.177 225.198 194.196L223.77 194.28Z" fill="black"/>
<path d="M101.68 147.192C101.941 146.912 102.361 146.492 102.94 145.932C103.519 145.353 104.181 144.691 104.928 143.944C105.693 143.179 106.44 142.376 107.168 141.536C108.437 140.099 109.427 138.839 110.136 137.756C110.864 136.673 111.219 135.535 111.2 134.34C111.181 133.239 110.855 132.305 110.22 131.54C109.585 130.775 108.624 130.401 107.336 130.42C106.291 130.439 105.432 130.747 104.76 131.344C104.088 131.941 103.603 132.781 103.304 133.864C103.285 133.995 103.22 134.06 103.108 134.06L101.68 133.808C101.549 133.808 101.503 133.743 101.54 133.612C101.969 132.119 102.716 130.961 103.78 130.14C104.863 129.3 106.151 128.88 107.644 128.88C109.361 128.88 110.687 129.375 111.62 130.364C112.553 131.335 113.02 132.613 113.02 134.2C113.02 135.469 112.637 136.757 111.872 138.064C111.107 139.352 109.893 140.901 108.232 142.712C107.653 143.347 107.019 144.028 106.328 144.756C105.637 145.465 104.872 146.277 104.032 147.192H113.272C113.384 147.192 113.44 147.248 113.44 147.36V148.564C113.44 148.676 113.384 148.732 113.272 148.732L101.848 148.76C101.736 148.76 101.68 148.704 101.68 148.592V147.192ZM122.681 149.18C120.609 149.18 119.06 148.377 118.033 146.772C117.025 145.167 116.521 142.703 116.521 139.38V138.68C116.521 135.339 117.025 132.875 118.033 131.288C119.06 129.683 120.609 128.88 122.681 128.88C124.753 128.88 126.293 129.683 127.301 131.288C128.328 132.875 128.841 135.339 128.841 138.68V139.38C128.841 142.703 128.328 145.167 127.301 146.772C126.293 148.377 124.753 149.18 122.681 149.18ZM122.681 147.612C124.174 147.612 125.266 146.94 125.957 145.596C126.666 144.233 127.021 142.161 127.021 139.38V138.68C127.021 135.805 126.666 133.715 125.957 132.408C125.266 131.083 124.174 130.42 122.681 130.42C121.188 130.42 120.086 131.083 119.377 132.408C118.686 133.715 118.341 135.805 118.341 138.68V139.38C118.341 142.161 118.686 144.233 119.377 145.596C120.086 146.94 121.188 147.612 122.681 147.612ZM131.922 147.192C132.184 146.912 132.604 146.492 133.182 145.932C133.761 145.353 134.424 144.691 135.17 143.944C135.936 143.179 136.682 142.376 137.41 141.536C138.68 140.099 139.669 138.839 140.378 137.756C141.106 136.673 141.461 135.535 141.442 134.34C141.424 133.239 141.097 132.305 140.462 131.54C139.828 130.775 138.866 130.401 137.578 130.42C136.533 130.439 135.674 130.747 135.002 131.344C134.33 131.941 133.845 132.781 133.546 133.864C133.528 133.995 133.462 134.06 133.35 134.06L131.922 133.808C131.792 133.808 131.745 133.743 131.782 133.612C132.212 132.119 132.958 130.961 134.022 130.14C135.105 129.3 136.393 128.88 137.886 128.88C139.604 128.88 140.929 129.375 141.862 130.364C142.796 131.335 143.262 132.613 143.262 134.2C143.262 135.469 142.88 136.757 142.114 138.064C141.349 139.352 140.136 140.901 138.474 142.712C137.896 143.347 137.261 144.028 136.57 144.756C135.88 145.465 135.114 146.277 134.274 147.192H143.514C143.626 147.192 143.682 147.248 143.682 147.36V148.564C143.682 148.676 143.626 148.732 143.514 148.732L132.09 148.76C131.978 148.76 131.922 148.704 131.922 148.592V147.192ZM147.323 145.82C147.398 145.708 147.473 145.708 147.547 145.82C148.145 146.436 148.789 146.884 149.479 147.164C150.189 147.425 150.973 147.556 151.831 147.556C153.493 147.556 154.809 147.108 155.779 146.212C156.769 145.316 157.263 144.159 157.263 142.74C157.263 141.713 156.937 140.808 156.283 140.024C155.63 139.24 154.79 138.773 153.763 138.624C152.923 138.848 152.027 138.96 151.075 138.96H150.487C150.375 138.96 150.319 138.904 150.319 138.792L150.347 137.644C150.347 137.532 150.403 137.476 150.515 137.476H151.075C152.102 137.476 153.017 137.327 153.819 137.028C154.622 136.729 155.257 136.291 155.723 135.712C156.19 135.115 156.423 134.368 156.423 133.472C156.423 132.557 156.115 131.82 155.499 131.26C154.883 130.7 154.043 130.42 152.979 130.42C152.009 130.42 151.131 130.663 150.347 131.148C149.582 131.633 149.097 132.249 148.891 132.996C148.873 133.108 148.807 133.145 148.695 133.108L147.295 132.66C147.183 132.623 147.146 132.548 147.183 132.436C147.426 131.708 147.837 131.083 148.415 130.56C148.994 130.019 149.675 129.608 150.459 129.328C151.262 129.029 152.083 128.88 152.923 128.88C154.547 128.88 155.835 129.3 156.787 130.14C157.758 130.961 158.243 132.063 158.243 133.444C158.243 134.377 158.029 135.208 157.599 135.936C157.17 136.645 156.582 137.243 155.835 137.728C156.862 138.176 157.655 138.848 158.215 139.744C158.794 140.64 159.083 141.639 159.083 142.74C159.083 143.972 158.775 145.073 158.159 146.044C157.562 146.996 156.713 147.752 155.611 148.312C154.529 148.853 153.269 149.124 151.831 149.124C150.805 149.124 149.815 148.956 148.863 148.62C147.93 148.265 147.109 147.752 146.399 147.08C146.325 147.005 146.325 146.921 146.399 146.828L147.323 145.82ZM189.34 151.28C189.266 151.28 189.228 151.233 189.228 151.14V138.848C188.65 138.848 188.052 138.857 187.436 138.876C186.82 138.876 186.288 138.895 185.84 138.932V149.852C185.84 150.113 185.822 150.281 185.784 150.356C185.766 150.412 185.71 150.449 185.616 150.468C185.504 150.487 185.271 150.505 184.916 150.524C184.58 150.543 184.366 150.552 184.272 150.552C184.198 150.552 184.16 150.505 184.16 150.412V131.624C184.16 130.915 184.142 130.261 184.104 129.664C184.067 129.067 184.002 128.675 183.908 128.488C183.871 128.395 183.871 128.329 183.908 128.292C183.964 128.236 184.03 128.208 184.104 128.208L185.756 128.236C185.85 128.273 185.896 128.348 185.896 128.46C185.859 129.001 185.84 129.487 185.84 129.916C185.84 130.345 185.84 130.793 185.84 131.26C185.84 131.372 185.84 131.493 185.84 131.624C185.84 131.755 185.84 131.895 185.84 132.044V137.336C185.934 137.336 186.027 137.336 186.12 137.336C186.214 137.336 186.307 137.336 186.4 137.336C186.83 137.336 187.287 137.336 187.772 137.336C188.276 137.336 188.762 137.317 189.228 137.28V130.896C189.228 130.187 189.21 129.533 189.172 128.936C189.154 128.339 189.098 127.947 189.004 127.76C188.967 127.667 188.967 127.601 189.004 127.564C189.06 127.508 189.126 127.48 189.2 127.48L190.852 127.508C190.946 127.545 190.992 127.62 190.992 127.732C190.955 128.292 190.927 128.796 190.908 129.244C190.908 129.692 190.908 130.159 190.908 130.644C190.908 130.756 190.908 130.868 190.908 130.98C190.908 131.092 190.908 131.204 190.908 131.316V150.58C190.908 150.86 190.89 151.028 190.852 151.084C190.834 151.14 190.778 151.177 190.684 151.196C190.628 151.196 190.498 151.196 190.292 151.196C190.106 151.215 189.919 151.233 189.732 151.252C189.546 151.271 189.415 151.28 189.34 151.28ZM170.272 144.112L169.628 143.524C169.554 143.449 169.582 143.365 169.712 143.272C169.731 143.253 169.74 143.244 169.74 143.244C170.487 142.703 171.215 142.04 171.924 141.256C172.652 140.453 173.324 139.595 173.94 138.68C174.556 137.765 175.088 136.841 175.536 135.908C175.984 134.975 176.311 134.097 176.516 133.276C176.666 132.716 176.787 132.137 176.88 131.54C176.974 130.924 177.02 130.429 177.02 130.056C177.02 129.944 177.048 129.869 177.104 129.832C177.16 129.776 177.216 129.767 177.272 129.804L179.092 130.252C179.204 130.271 179.251 130.373 179.232 130.56L178.336 133.556C178.224 133.911 178.075 134.34 177.888 134.844C177.702 135.348 177.45 135.899 177.132 136.496C177.655 136.963 178.206 137.467 178.784 138.008C179.363 138.531 179.923 139.044 180.464 139.548C181.024 140.052 181.51 140.509 181.92 140.92C182.331 141.331 182.63 141.648 182.816 141.872C182.872 141.928 182.919 142.021 182.956 142.152C183.012 142.283 182.975 142.404 182.844 142.516C182.676 142.703 182.499 142.88 182.312 143.048C182.126 143.216 181.93 143.365 181.724 143.496C181.631 143.589 181.538 143.571 181.444 143.44C181.146 142.936 180.716 142.339 180.156 141.648C179.596 140.939 178.99 140.22 178.336 139.492C177.702 138.764 177.104 138.139 176.544 137.616C175.966 138.624 175.238 139.688 174.36 140.808C173.502 141.909 172.428 143.001 171.14 144.084C171.047 144.177 170.926 144.243 170.776 144.28C170.627 144.317 170.459 144.261 170.272 144.112ZM214.831 151.28C214.757 151.28 214.719 151.233 214.719 151.14V138.792C214.197 138.792 213.655 138.801 213.095 138.82C212.535 138.82 212.041 138.829 211.611 138.848V149.852C211.611 150.132 211.593 150.3 211.555 150.356C211.537 150.412 211.481 150.449 211.387 150.468C211.331 150.468 211.201 150.477 210.995 150.496C210.809 150.496 210.622 150.505 210.435 150.524C210.249 150.543 210.118 150.552 210.043 150.552C209.969 150.552 209.931 150.505 209.931 150.412V131.624C209.931 130.915 209.913 130.261 209.875 129.664C209.838 129.067 209.773 128.675 209.679 128.488C209.642 128.395 209.642 128.329 209.679 128.292C209.735 128.236 209.801 128.208 209.875 128.208L211.527 128.236C211.621 128.273 211.667 128.348 211.667 128.46C211.63 129.001 211.611 129.487 211.611 129.916C211.611 130.345 211.611 130.793 211.611 131.26C211.611 131.372 211.611 131.493 211.611 131.624C211.611 131.755 211.611 131.895 211.611 132.044V137.364C212.657 137.401 213.693 137.373 214.719 137.28V130.896C214.719 130.187 214.701 129.533 214.663 128.936C214.645 128.339 214.589 127.947 214.495 127.76C214.458 127.667 214.458 127.601 214.495 127.564C214.551 127.508 214.617 127.48 214.691 127.48L216.343 127.508C216.437 127.545 216.483 127.62 216.483 127.732C216.446 128.292 216.418 128.796 216.399 129.244C216.399 129.692 216.399 130.159 216.399 130.644C216.399 130.756 216.399 130.868 216.399 130.98C216.399 131.092 216.399 131.204 216.399 131.316V150.58C216.399 150.86 216.381 151.028 216.343 151.084C216.325 151.14 216.269 151.177 216.175 151.196C216.119 151.196 215.989 151.196 215.783 151.196C215.597 151.215 215.41 151.233 215.223 151.252C215.037 151.271 214.906 151.28 214.831 151.28ZM202.231 145.54C201.13 145.559 200.197 145.344 199.431 144.896C198.666 144.448 198.087 143.879 197.695 143.188C197.303 142.497 197.107 141.807 197.107 141.116C197.107 140.425 197.285 139.744 197.639 139.072C198.013 138.381 198.582 137.803 199.347 137.336C200.113 136.869 201.102 136.627 202.315 136.608C203.958 136.571 205.227 136.953 206.123 137.756C207.038 138.559 207.477 139.623 207.439 140.948C207.421 141.657 207.206 142.367 206.795 143.076C206.403 143.767 205.825 144.345 205.059 144.812C204.294 145.26 203.351 145.503 202.231 145.54ZM202.231 144.168C203.351 144.131 204.201 143.804 204.779 143.188C205.358 142.572 205.666 141.835 205.703 140.976C205.741 140.491 205.647 140.005 205.423 139.52C205.218 139.016 204.863 138.596 204.359 138.26C203.874 137.905 203.193 137.747 202.315 137.784C201.457 137.803 200.766 137.98 200.243 138.316C199.721 138.633 199.338 139.044 199.095 139.548C198.871 140.033 198.759 140.547 198.759 141.088C198.759 141.891 199.058 142.609 199.655 143.244C200.271 143.86 201.13 144.168 202.231 144.168ZM196.071 135.32C195.885 135.339 195.763 135.32 195.707 135.264C195.651 135.189 195.605 135.105 195.567 135.012C195.549 134.993 195.539 134.975 195.539 134.956C195.465 134.751 195.409 134.583 195.371 134.452C195.334 134.321 195.278 134.097 195.203 133.78C195.185 133.743 195.194 133.696 195.231 133.64C195.269 133.584 195.334 133.556 195.427 133.556C195.801 133.575 196.193 133.603 196.603 133.64C197.033 133.659 197.686 133.668 198.563 133.668C199.329 133.668 200.271 133.659 201.391 133.64C202.511 133.603 203.641 133.537 204.779 133.444C205.246 133.407 205.722 133.36 206.207 133.304C206.711 133.248 207.159 133.192 207.551 133.136C207.943 133.061 208.205 133.005 208.335 132.968C208.391 132.949 208.457 132.959 208.531 132.996C208.606 133.015 208.653 133.089 208.671 133.22L208.811 134.368C208.83 134.461 208.821 134.555 208.783 134.648C208.765 134.741 208.681 134.788 208.531 134.788H205.115C204.705 134.788 204.21 134.797 203.631 134.816C203.071 134.835 202.502 134.853 201.923 134.872C201.345 134.891 200.831 134.919 200.383 134.956C199.935 134.975 199.618 134.993 199.431 135.012C198.871 135.049 198.283 135.105 197.667 135.18C197.07 135.236 196.538 135.283 196.071 135.32ZM201.391 131.148C201.13 131.111 200.775 131.064 200.327 131.008C199.879 130.933 199.441 130.84 199.011 130.728C198.582 130.597 198.237 130.439 197.975 130.252C197.901 130.196 197.882 130.084 197.919 129.916C197.957 129.729 198.022 129.561 198.115 129.412C198.209 129.244 198.302 129.179 198.395 129.216C199.198 129.365 200.066 129.459 200.999 129.496C201.951 129.533 202.847 129.543 203.687 129.524C204.527 129.487 205.209 129.449 205.731 129.412C205.881 129.393 205.974 129.403 206.011 129.44C206.049 129.459 206.077 129.515 206.095 129.608C206.095 129.627 206.095 129.655 206.095 129.692C206.095 129.86 206.086 130.093 206.067 130.392C206.049 130.672 205.983 130.831 205.871 130.868C205.759 130.905 205.461 130.961 204.975 131.036C204.509 131.092 203.949 131.139 203.295 131.176C202.661 131.195 202.026 131.185 201.391 131.148Z" fill="black"/>
</svg>
