<svg width="145" height="103" viewBox="0 0 145 103" fill="none" xmlns="http://www.w3.org/2000/svg">
<path d="M23.4443 46.5059H122.444V72.0059C122.444 82.7754 113.714 91.5059 102.944 91.5059H42.9443C32.1748 91.5059 23.4443 82.7754 23.4443 72.0059V46.5059Z" fill="#B9B9B9" stroke="black"/>
<mask id="path-2-inside-1_7_79" fill="white">
<path fill-rule="evenodd" clip-rule="evenodd" d="M122.963 46.2754L23.5486 35.5521C25.4566 21.2821 48.8164 12.1269 76.044 15.0638C103.272 18.0007 124.142 31.9268 122.963 46.2754Z"/>
</mask>
<path fill-rule="evenodd" clip-rule="evenodd" d="M122.963 46.2754L23.5486 35.5521C25.4566 21.2821 48.8164 12.1269 76.044 15.0638C103.272 18.0007 124.142 31.9268 122.963 46.2754Z" fill="#B9B9B9"/>
<path d="M23.5486 35.5521L22.5574 35.4195L22.4215 36.4363L23.4414 36.5463L23.5486 35.5521ZM122.963 46.2754L122.855 47.2697L123.875 47.3797L123.959 46.3573L122.963 46.2754ZM23.4414 36.5463L122.855 47.2697L123.07 45.2812L23.6558 34.5578L23.4414 36.5463ZM24.5398 35.6846C25.4217 29.0884 31.3128 23.4417 40.6654 19.7868C49.9702 16.1506 62.4507 14.6034 75.9367 16.0581L76.1512 14.0696C62.4097 12.5874 49.5966 14.1493 39.9375 17.9239C30.3263 21.6799 23.5835 27.7457 22.5574 35.4195L24.5398 35.6846ZM75.9367 16.0581C89.4228 17.5127 101.286 21.6858 109.602 27.2226C117.96 32.7879 122.511 39.561 121.966 46.1935L123.959 46.3573C124.593 38.6412 119.299 31.277 110.71 25.5579C102.078 19.8102 89.8927 15.5518 76.1512 14.0696L75.9367 16.0581Z" fill="black" mask="url(#path-2-inside-1_7_79)"/>
<rect x="73.0509" y="10.2148" width="7" height="5" rx="0.5" transform="rotate(6.15643 73.0509 10.2148)" fill="#787878" stroke="black"/>
<rect x="15.4443" y="48.5059" width="8" height="5" rx="0.5" fill="#787878" stroke="black"/>
<rect x="122.444" y="48.5059" width="8" height="5" rx="0.5" fill="#787878" stroke="black"/>
<mask id="path-7-inside-2_7_79" fill="white">
<path fill-rule="evenodd" clip-rule="evenodd" d="M2.95654 11.7312C1.60887 10.8855 0.709512 9.73644 0.258461 8.28409C-0.203914 6.77852 -0.0459127 5.37682 0.732463 4.07902C1.40111 2.96416 2.36262 2.18819 3.61697 1.75112C4.87757 1.31779 6.17239 1.33642 7.50143 1.80703C8.68302 0.727735 10.1004 0.131919 11.7537 0.019584C13.4165 -0.0947278 14.9871 0.291389 16.4652 1.17793C18.2927 2.27396 19.4897 3.78481 20.0563 5.71048C20.6325 7.63418 20.4183 9.4336 19.4136 11.1087C20.424 11.8702 21.0588 12.8339 21.3178 13.9999C21.5899 15.1581 21.431 16.2289 20.8413 17.2123C20.1966 18.2871 19.2412 18.954 17.9749 19.2129C16.7087 19.4719 15.4893 19.2497 14.3168 18.5464L12.9002 17.6969C12.1676 18.2023 11.2999 18.4918 10.2973 18.5654C9.00099 18.6615 7.73789 18.386 6.50797 17.7389C4.98743 16.9388 3.92913 15.827 3.33306 14.4034C2.93939 13.4757 2.81389 12.585 2.95654 11.7312Z"/>
</mask>
<path fill-rule="evenodd" clip-rule="evenodd" d="M2.95654 11.7312C1.60887 10.8855 0.709512 9.73644 0.258461 8.28409C-0.203914 6.77852 -0.0459127 5.37682 0.732463 4.07902C1.40111 2.96416 2.36262 2.18819 3.61697 1.75112C4.87757 1.31779 6.17239 1.33642 7.50143 1.80703C8.68302 0.727735 10.1004 0.131919 11.7537 0.019584C13.4165 -0.0947278 14.9871 0.291389 16.4652 1.17793C18.2927 2.27396 19.4897 3.78481 20.0563 5.71048C20.6325 7.63418 20.4183 9.4336 19.4136 11.1087C20.424 11.8702 21.0588 12.8339 21.3178 13.9999C21.5899 15.1581 21.431 16.2289 20.8413 17.2123C20.1966 18.2871 19.2412 18.954 17.9749 19.2129C16.7087 19.4719 15.4893 19.2497 14.3168 18.5464L12.9002 17.6969C12.1676 18.2023 11.2999 18.4918 10.2973 18.5654C9.00099 18.6615 7.73789 18.386 6.50797 17.7389C4.98743 16.9388 3.92913 15.827 3.33306 14.4034C2.93939 13.4757 2.81389 12.585 2.95654 11.7312Z" fill="white"/>
<path d="M2.95654 11.7312L3.94287 11.896L4.05272 11.2385L3.48808 10.8842L2.95654 11.7312ZM0.258461 8.28409L-0.69748 8.57767L-0.696544 8.58068L0.258461 8.28409ZM0.732463 4.07902L-0.12512 3.56467L-0.12512 3.56467L0.732463 4.07902ZM3.61697 1.75112L3.29189 0.805425L3.28793 0.806803L3.61697 1.75112ZM7.50143 1.80703L7.16764 2.74968L7.73301 2.94988L8.17585 2.54538L7.50143 1.80703ZM11.7537 0.019584L11.8214 1.01728L11.8222 1.01723L11.7537 0.019584ZM16.4652 1.17793L15.9509 2.03552L15.9509 2.03552L16.4652 1.17793ZM20.0563 5.71048L19.0969 5.99275L19.0983 5.99744L20.0563 5.71048ZM19.4136 11.1087L18.5561 10.5944L18.0933 11.3659L18.8118 11.9073L19.4136 11.1087ZM21.3178 13.9999L20.3415 14.2168L20.3443 14.2286L21.3178 13.9999ZM20.8413 17.2123L21.6988 17.7266L21.6988 17.7266L20.8413 17.2123ZM17.9749 19.2129L17.7746 18.2332L17.7746 18.2332L17.9749 19.2129ZM14.3168 18.5464L14.8311 17.6889L14.8311 17.6889L14.3168 18.5464ZM12.9002 17.6969L13.4146 16.8393L12.8624 16.5081L12.3323 16.8738L12.9002 17.6969ZM10.2973 18.5654L10.2241 17.5681L10.2233 17.5681L10.2973 18.5654ZM6.50797 17.7389L6.9736 16.8539L6.97359 16.8539L6.50797 17.7389ZM3.33306 14.4034L4.25548 14.0172L4.25359 14.0127L3.33306 14.4034ZM3.48808 10.8842C2.33261 10.1591 1.59017 9.20045 1.21347 7.9875L-0.696544 8.58068C-0.171142 10.2724 0.885135 11.6119 2.425 12.5782L3.48808 10.8842ZM1.2144 7.99051C0.831422 6.74348 0.96413 5.63697 1.59005 4.59336L-0.12512 3.56467C-1.05596 5.11668 -1.23925 6.81355 -0.697475 8.57766L1.2144 7.99051ZM1.59005 4.59336C2.13545 3.684 2.90748 3.05731 3.94601 2.69543L3.28793 0.806803C1.81775 1.31908 0.66678 2.24431 -0.12512 3.56467L1.59005 4.59336ZM3.94206 2.6968C4.97611 2.34135 6.03837 2.34981 7.16764 2.74968L7.83522 0.864384C6.3064 0.323038 4.77903 0.294226 3.29189 0.805433L3.94206 2.6968ZM8.17585 2.54538C9.1841 1.62441 10.3853 1.11487 11.8214 1.01728L11.6859 -0.978115C9.81556 -0.85103 8.18193 -0.168941 6.827 1.06869L8.17585 2.54538ZM11.8222 1.01723C13.2738 0.917446 14.6418 1.25036 15.9509 2.03552L16.9796 0.32035C15.3324 -0.667583 13.5593 -1.1069 11.6851 -0.978062L11.8222 1.01723ZM15.9509 2.03552C17.5776 3.01113 18.6058 4.32367 19.0969 5.99275L21.0156 5.42821C20.3735 3.24594 19.0078 1.53678 16.9796 0.32035L15.9509 2.03552ZM19.0983 5.99744C19.5965 7.66039 19.4116 9.16795 18.5561 10.5944L20.2712 11.6231C21.4251 9.69925 21.6686 7.60796 21.0142 5.42352L19.0983 5.99744ZM18.8118 11.9073C19.6444 12.5348 20.1374 13.2976 20.3416 14.2167L22.294 13.783C21.9801 12.3703 21.2037 11.2056 20.0155 10.3101L18.8118 11.9073ZM20.3443 14.2286C20.5594 15.1441 20.4341 15.9469 19.9837 16.6979L21.6988 17.7266C22.428 16.5109 22.6204 15.1722 22.2913 13.7712L20.3443 14.2286ZM19.9837 16.6979C19.4882 17.524 18.7759 18.0284 17.7746 18.2332L18.1753 20.1927C19.7064 19.8796 20.905 19.0502 21.6988 17.7266L19.9837 16.6979ZM17.7746 18.2332C16.7686 18.4389 15.8027 18.2716 14.8311 17.6889L13.8024 19.404C15.1759 20.2278 16.6488 20.5048 18.1753 20.1927L17.7746 18.2332ZM14.8311 17.6889L13.4146 16.8393L12.3859 18.5544L13.8024 19.404L14.8311 17.6889ZM12.3323 16.8738C11.7644 17.2656 11.0728 17.5058 10.2241 17.5681L10.3704 19.5627C11.5271 19.4779 12.5708 19.1391 13.4681 18.52L12.3323 16.8738ZM10.2233 17.5681C9.12692 17.6494 8.0497 17.4201 6.9736 16.8539L6.04234 18.6238C7.42608 19.3519 8.87505 19.6736 10.3712 19.5627L10.2233 17.5681ZM6.97359 16.8539C5.63384 16.149 4.75158 15.2021 4.25547 14.0172L2.41064 14.7896C3.10668 16.452 4.34102 17.7287 6.04234 18.6238L6.97359 16.8539ZM4.25359 14.0127C3.92182 13.2309 3.83643 12.5331 3.94287 11.896L1.97021 11.5664C1.79135 12.637 1.95697 13.7206 2.41252 14.794L4.25359 14.0127Z" fill="black" mask="url(#path-7-inside-2_7_79)"/>
<mask id="path-9-inside-3_7_79" fill="white">
<path fill-rule="evenodd" clip-rule="evenodd" d="M75.6861 95.0202C75.8256 95.1629 75.9682 95.3089 76.0893 95.4727C76.0893 95.4727 76.4492 96.006 76.5842 96.3127L76.6678 96.486C77.2719 98.0061 76.8606 99.7795 75.6844 100.886C74.6303 101.873 73.1584 102.133 71.7829 101.953C70.491 101.786 69.2891 100.96 68.595 99.8061C68.4021 99.4528 68.2286 99.0528 68.1386 98.6528C68.0293 98.3194 67.9908 97.9861 67.9522 97.6527C67.8687 96.206 68.4536 94.6727 69.5269 93.766C69.0384 94.8593 69.1541 96.226 69.8804 97.1794C69.9061 97.2261 69.9319 97.2594 69.9704 97.2927C70.0925 97.3994 70.2468 97.4394 70.3946 97.3727C70.5232 97.3194 70.6196 97.1861 70.6196 97.0394C70.6196 96.9527 70.5939 96.8861 70.5682 96.8194C69.784 94.7193 70.4396 92.2726 72.1043 90.8859C72.5607 90.5059 73.0941 90.1592 73.7047 90.0059C73.0941 91.2392 73.3062 92.8459 74.2639 93.8193C74.49 94.0502 74.7394 94.2407 74.9897 94.432C75.1948 94.5887 75.4004 94.7459 75.5944 94.926C75.6246 94.9574 75.6553 94.9887 75.6861 95.0202Z"/>
</mask>
<path fill-rule="evenodd" clip-rule="evenodd" d="M75.6861 95.0202C75.8256 95.1629 75.9682 95.3089 76.0893 95.4727C76.0893 95.4727 76.4492 96.006 76.5842 96.3127L76.6678 96.486C77.2719 98.0061 76.8606 99.7795 75.6844 100.886C74.6303 101.873 73.1584 102.133 71.7829 101.953C70.491 101.786 69.2891 100.96 68.595 99.8061C68.4021 99.4528 68.2286 99.0528 68.1386 98.6528C68.0293 98.3194 67.9908 97.9861 67.9522 97.6527C67.8687 96.206 68.4536 94.6727 69.5269 93.766C69.0384 94.8593 69.1541 96.226 69.8804 97.1794C69.9061 97.2261 69.9319 97.2594 69.9704 97.2927C70.0925 97.3994 70.2468 97.4394 70.3946 97.3727C70.5232 97.3194 70.6196 97.1861 70.6196 97.0394C70.6196 96.9527 70.5939 96.8861 70.5682 96.8194C69.784 94.7193 70.4396 92.2726 72.1043 90.8859C72.5607 90.5059 73.0941 90.1592 73.7047 90.0059C73.0941 91.2392 73.3062 92.8459 74.2639 93.8193C74.49 94.0502 74.7394 94.2407 74.9897 94.432C75.1948 94.5887 75.4004 94.7459 75.5944 94.926C75.6246 94.9574 75.6553 94.9887 75.6861 95.0202Z" fill="#E54141"/>
<path d="M76.0893 95.4727L76.9182 94.9133L76.9062 94.8955L76.8935 94.8783L76.0893 95.4727ZM75.6861 95.0202L76.4012 94.3212L76.4012 94.3212L75.6861 95.0202ZM76.5842 96.3127L75.6689 96.7155L75.6759 96.7314L75.6834 96.7469L76.5842 96.3127ZM76.6678 96.486L77.597 96.1167L77.584 96.0837L77.5686 96.0518L76.6678 96.486ZM75.6844 100.886L76.3678 101.616L76.3696 101.614L75.6844 100.886ZM71.7829 101.953L71.9127 100.961L71.9109 100.961L71.7829 101.953ZM68.595 99.8061L67.7172 100.285L67.7273 100.304L67.7382 100.322L68.595 99.8061ZM68.1386 98.6528L69.1142 98.4333L69.1037 98.3867L69.0889 98.3413L68.1386 98.6528ZM67.9522 97.6527L66.9539 97.7104L66.9555 97.7391L66.9588 97.7677L67.9522 97.6527ZM69.5269 93.766L70.4399 94.1739L68.8816 93.002L69.5269 93.766ZM69.8804 97.1794L70.7563 96.6969L70.7207 96.6322L70.6759 96.5734L69.8804 97.1794ZM69.9704 97.2927L70.6283 96.5396L70.6244 96.5362L69.9704 97.2927ZM70.3946 97.3727L70.0114 96.4491L69.9974 96.4549L69.9835 96.4611L70.3946 97.3727ZM70.5682 96.8194L69.6313 97.1692L69.6351 97.1792L70.5682 96.8194ZM72.1043 90.8859L71.4644 90.1174L71.4643 90.1175L72.1043 90.8859ZM73.7047 90.0059L74.6009 90.4495L75.5619 88.5084L73.4612 89.036L73.7047 90.0059ZM74.2639 93.8193L74.9783 93.1196L74.9767 93.118L74.2639 93.8193ZM74.9897 94.432L74.3825 95.2266L74.3825 95.2266L74.9897 94.432ZM75.5944 94.926L76.3143 94.2319L76.2952 94.2121L76.275 94.1933L75.5944 94.926ZM76.8935 94.8783C76.7247 94.6499 76.5327 94.4558 76.4012 94.3212L74.971 95.7192C75.1184 95.87 75.2117 95.9678 75.2851 96.0671L76.8935 94.8783ZM77.4995 95.9099C77.4003 95.6846 77.2419 95.4208 77.1351 95.2493C77.0767 95.1555 77.0233 95.0727 76.9844 95.0133C76.9649 94.9835 76.9489 94.9592 76.9375 94.9421C76.9318 94.9335 76.9272 94.9267 76.924 94.9219C76.9223 94.9194 76.921 94.9175 76.9201 94.9161C76.9196 94.9153 76.9192 94.9147 76.9189 94.9143C76.9187 94.9141 76.9186 94.9139 76.9185 94.9137C76.9184 94.9136 76.9184 94.9135 76.9183 94.9135C76.9183 94.9134 76.9183 94.9134 76.9183 94.9134C76.9182 94.9133 76.9182 94.9133 76.0893 95.4727C75.2604 96.0321 75.2604 96.032 75.2603 96.032C75.2603 96.032 75.2603 96.032 75.2603 96.0319C75.2603 96.0319 75.2603 96.0319 75.2603 96.0319C75.2602 96.0318 75.2602 96.0318 75.2602 96.0319C75.2603 96.0319 75.2604 96.0321 75.2606 96.0324C75.261 96.033 75.2617 96.0341 75.2628 96.0356C75.2648 96.0387 75.2682 96.0437 75.2726 96.0503C75.2814 96.0635 75.2945 96.0834 75.3109 96.1083C75.3437 96.1585 75.3887 96.2282 75.4372 96.3061C75.5441 96.4779 75.6331 96.6342 75.6689 96.7155L77.4995 95.9099ZM77.5686 96.0518L77.485 95.8785L75.6834 96.7469L75.767 96.9203L77.5686 96.0518ZM76.3696 101.614C77.8406 100.23 78.3548 98.0232 77.597 96.1167L75.7385 96.8554C76.1891 97.989 75.8805 99.3285 74.9991 100.158L76.3696 101.614ZM71.6532 102.944C73.2169 103.149 75.0265 102.872 76.3678 101.616L75.001 100.156C74.2341 100.874 73.0999 101.117 71.9127 100.961L71.6532 102.944ZM67.7382 100.322C68.5768 101.715 70.0361 102.736 71.655 102.945L71.9109 100.961C70.946 100.837 70.0014 100.204 69.4517 99.2905L67.7382 100.322ZM67.163 98.8722C67.28 99.3926 67.4973 99.8822 67.7172 100.285L69.4728 99.3271C69.307 99.0234 69.1771 98.713 69.1142 98.4333L67.163 98.8722ZM66.9588 97.7677C66.9958 98.0872 67.0427 98.5199 67.1884 98.9643L69.0889 98.3413C69.016 98.119 68.9858 97.885 68.9456 97.5378L66.9588 97.7677ZM68.8816 93.002C67.5383 94.1368 66.8545 95.9903 66.9539 97.7104L68.9506 97.5951C68.8828 96.4218 69.3688 95.2085 70.1722 94.5299L68.8816 93.002ZM70.6759 96.5734C70.1876 95.9324 70.0894 94.9585 70.4399 94.1739L68.6139 93.3581C67.9875 94.7602 68.1207 96.5196 69.085 97.7854L70.6759 96.5734ZM70.6244 96.5362C70.6487 96.5573 70.6775 96.586 70.7057 96.6217C70.7329 96.6562 70.7494 96.6844 70.7563 96.6969L69.0046 97.6619C69.0787 97.7965 69.1755 97.9275 69.3165 98.0493L70.6244 96.5362ZM69.9835 96.4611C70.1064 96.4057 70.2463 96.3917 70.376 96.4186C70.4977 96.4438 70.5808 96.4981 70.6283 96.5396L69.3126 98.0459C69.6578 98.3474 70.2221 98.5475 70.8057 98.2843L69.9835 96.4611ZM69.6196 97.0394C69.6196 96.7591 69.788 96.5418 70.0114 96.4491L70.7779 98.2964C71.2584 98.097 71.6196 97.613 71.6196 97.0394H69.6196ZM69.6351 97.1792C69.6631 97.2518 69.6196 97.1599 69.6196 97.0394H71.6196C71.6196 96.7455 71.5246 96.5204 71.5012 96.4596L69.6351 97.1792ZM71.4643 90.1175C69.4687 91.7799 68.7007 94.6768 69.6313 97.1692L71.505 96.4696C70.8673 94.7619 71.4106 92.7653 72.7443 91.6542L71.4643 90.1175ZM73.4612 89.036C72.6444 89.2411 71.9758 89.6916 71.4644 90.1174L72.7442 91.6543C73.1455 91.3202 73.5438 91.0773 73.9483 90.9757L73.4612 89.036ZM74.9767 93.118C74.3376 92.4684 74.1665 91.327 74.6009 90.4495L72.8085 89.5622C72.0218 91.1514 72.2749 93.2235 73.5511 94.5206L74.9767 93.118ZM75.5969 93.6374C75.3381 93.4397 75.1462 93.291 74.9783 93.1196L73.5495 94.519C73.8338 94.8093 74.1407 95.0418 74.3825 95.2266L75.5969 93.6374ZM76.275 94.1933C76.0401 93.9752 75.7962 93.7897 75.5969 93.6374L74.3825 95.2266C74.5934 95.3877 74.7608 95.5165 74.9138 95.6587L76.275 94.1933ZM76.4012 94.3212C76.37 94.2893 76.3417 94.2604 76.3143 94.2319L74.8745 95.6201C74.9075 95.6543 74.9406 95.6882 74.971 95.7192L76.4012 94.3212Z" fill="black" mask="url(#path-9-inside-3_7_79)"/>
<mask id="path-11-inside-4_7_79" fill="white">
<path fill-rule="evenodd" clip-rule="evenodd" d="M64.6861 95.0202C64.8256 95.1629 64.9682 95.3089 65.0893 95.4727C65.0893 95.4727 65.4492 96.006 65.5842 96.3127L65.6678 96.486C66.2719 98.0061 65.8606 99.7795 64.6844 100.886C63.6303 101.873 62.1584 102.133 60.7829 101.953C59.491 101.786 58.2891 100.96 57.595 99.8061C57.4021 99.4528 57.2286 99.0528 57.1386 98.6528C57.0293 98.3194 56.9908 97.9861 56.9522 97.6527C56.8687 96.206 57.4536 94.6727 58.5269 93.766C58.0384 94.8593 58.1541 96.226 58.8804 97.1794C58.9061 97.2261 58.9319 97.2594 58.9704 97.2927C59.0925 97.3994 59.2468 97.4394 59.3946 97.3727C59.5232 97.3194 59.6196 97.1861 59.6196 97.0394C59.6196 96.9527 59.5939 96.8861 59.5682 96.8194C58.784 94.7193 59.4396 92.2726 61.1043 90.8859C61.5607 90.5059 62.0941 90.1592 62.7047 90.0059C62.0941 91.2392 62.3062 92.8459 63.2639 93.8193C63.49 94.0502 63.7394 94.2407 63.9897 94.432C64.1948 94.5887 64.4004 94.7459 64.5944 94.926C64.6246 94.9574 64.6553 94.9887 64.6861 95.0202Z"/>
</mask>
<path fill-rule="evenodd" clip-rule="evenodd" d="M64.6861 95.0202C64.8256 95.1629 64.9682 95.3089 65.0893 95.4727C65.0893 95.4727 65.4492 96.006 65.5842 96.3127L65.6678 96.486C66.2719 98.0061 65.8606 99.7795 64.6844 100.886C63.6303 101.873 62.1584 102.133 60.7829 101.953C59.491 101.786 58.2891 100.96 57.595 99.8061C57.4021 99.4528 57.2286 99.0528 57.1386 98.6528C57.0293 98.3194 56.9908 97.9861 56.9522 97.6527C56.8687 96.206 57.4536 94.6727 58.5269 93.766C58.0384 94.8593 58.1541 96.226 58.8804 97.1794C58.9061 97.2261 58.9319 97.2594 58.9704 97.2927C59.0925 97.3994 59.2468 97.4394 59.3946 97.3727C59.5232 97.3194 59.6196 97.1861 59.6196 97.0394C59.6196 96.9527 59.5939 96.8861 59.5682 96.8194C58.784 94.7193 59.4396 92.2726 61.1043 90.8859C61.5607 90.5059 62.0941 90.1592 62.7047 90.0059C62.0941 91.2392 62.3062 92.8459 63.2639 93.8193C63.49 94.0502 63.7394 94.2407 63.9897 94.432C64.1948 94.5887 64.4004 94.7459 64.5944 94.926C64.6246 94.9574 64.6553 94.9887 64.6861 95.0202Z" fill="#E54141"/>
<path d="M65.0893 95.4727L65.9182 94.9133L65.9062 94.8955L65.8935 94.8783L65.0893 95.4727ZM64.6861 95.0202L65.4012 94.3212L65.4012 94.3212L64.6861 95.0202ZM65.5842 96.3127L64.6689 96.7155L64.6759 96.7314L64.6834 96.7469L65.5842 96.3127ZM65.6678 96.486L66.597 96.1167L66.584 96.0837L66.5686 96.0518L65.6678 96.486ZM64.6844 100.886L65.3678 101.616L65.3696 101.614L64.6844 100.886ZM60.7829 101.953L60.9127 100.961L60.9109 100.961L60.7829 101.953ZM57.595 99.8061L56.7172 100.285L56.7273 100.304L56.7382 100.322L57.595 99.8061ZM57.1386 98.6528L58.1142 98.4333L58.1037 98.3867L58.0889 98.3413L57.1386 98.6528ZM56.9522 97.6527L55.9539 97.7104L55.9555 97.7391L55.9588 97.7677L56.9522 97.6527ZM58.5269 93.766L59.4399 94.1739L57.8816 93.002L58.5269 93.766ZM58.8804 97.1794L59.7563 96.6969L59.7207 96.6322L59.6759 96.5734L58.8804 97.1794ZM58.9704 97.2927L59.6283 96.5396L59.6244 96.5362L58.9704 97.2927ZM59.3946 97.3727L59.0114 96.4491L58.9974 96.4549L58.9835 96.4611L59.3946 97.3727ZM59.5682 96.8194L58.6313 97.1692L58.6351 97.1792L59.5682 96.8194ZM61.1043 90.8859L60.4644 90.1174L60.4643 90.1175L61.1043 90.8859ZM62.7047 90.0059L63.6009 90.4495L64.5619 88.5084L62.4612 89.036L62.7047 90.0059ZM63.2639 93.8193L63.9783 93.1196L63.9767 93.118L63.2639 93.8193ZM63.9897 94.432L63.3825 95.2266L63.3825 95.2266L63.9897 94.432ZM64.5944 94.926L65.3143 94.2319L65.2952 94.2121L65.275 94.1933L64.5944 94.926ZM65.8935 94.8783C65.7247 94.6499 65.5327 94.4558 65.4012 94.3212L63.971 95.7192C64.1184 95.87 64.2117 95.9678 64.2851 96.0671L65.8935 94.8783ZM66.4995 95.9099C66.4003 95.6846 66.2419 95.4208 66.1351 95.2493C66.0767 95.1555 66.0233 95.0727 65.9844 95.0133C65.9649 94.9835 65.9489 94.9592 65.9375 94.9421C65.9318 94.9335 65.9272 94.9267 65.924 94.9219C65.9223 94.9194 65.921 94.9175 65.9201 94.9161C65.9196 94.9153 65.9192 94.9147 65.9189 94.9143C65.9187 94.9141 65.9186 94.9139 65.9185 94.9137C65.9184 94.9136 65.9184 94.9135 65.9183 94.9135C65.9183 94.9134 65.9183 94.9134 65.9183 94.9134C65.9182 94.9133 65.9182 94.9133 65.0893 95.4727C64.2604 96.0321 64.2604 96.032 64.2603 96.032C64.2603 96.032 64.2603 96.032 64.2603 96.0319C64.2603 96.0319 64.2603 96.0319 64.2603 96.0319C64.2602 96.0318 64.2602 96.0318 64.2602 96.0319C64.2603 96.0319 64.2604 96.0321 64.2606 96.0324C64.261 96.033 64.2617 96.0341 64.2628 96.0356C64.2648 96.0387 64.2682 96.0437 64.2726 96.0503C64.2814 96.0635 64.2945 96.0834 64.3109 96.1083C64.3437 96.1585 64.3887 96.2282 64.4372 96.3061C64.5441 96.4779 64.6331 96.6342 64.6689 96.7155L66.4995 95.9099ZM66.5686 96.0518L66.485 95.8785L64.6834 96.7469L64.767 96.9203L66.5686 96.0518ZM65.3696 101.614C66.8406 100.23 67.3548 98.0232 66.597 96.1167L64.7385 96.8554C65.1891 97.989 64.8805 99.3285 63.9991 100.158L65.3696 101.614ZM60.6532 102.944C62.2169 103.149 64.0265 102.872 65.3678 101.616L64.001 100.156C63.2341 100.874 62.0999 101.117 60.9127 100.961L60.6532 102.944ZM56.7382 100.322C57.5768 101.715 59.0361 102.736 60.655 102.945L60.9109 100.961C59.946 100.837 59.0014 100.204 58.4517 99.2905L56.7382 100.322ZM56.163 98.8722C56.28 99.3926 56.4973 99.8822 56.7172 100.285L58.4728 99.3271C58.307 99.0234 58.1771 98.713 58.1142 98.4333L56.163 98.8722ZM55.9588 97.7677C55.9958 98.0872 56.0427 98.5199 56.1884 98.9643L58.0889 98.3413C58.016 98.119 57.9858 97.885 57.9456 97.5378L55.9588 97.7677ZM57.8816 93.002C56.5383 94.1368 55.8545 95.9903 55.9539 97.7104L57.9506 97.5951C57.8828 96.4218 58.3688 95.2085 59.1722 94.5299L57.8816 93.002ZM59.6759 96.5734C59.1876 95.9324 59.0894 94.9585 59.4399 94.1739L57.6139 93.3581C56.9875 94.7602 57.1207 96.5196 58.085 97.7854L59.6759 96.5734ZM59.6244 96.5362C59.6487 96.5573 59.6775 96.586 59.7057 96.6217C59.7329 96.6562 59.7494 96.6844 59.7563 96.6969L58.0046 97.6619C58.0787 97.7965 58.1755 97.9275 58.3165 98.0493L59.6244 96.5362ZM58.9835 96.4611C59.1064 96.4057 59.2463 96.3917 59.376 96.4186C59.4977 96.4438 59.5808 96.4981 59.6283 96.5396L58.3126 98.0459C58.6578 98.3474 59.2221 98.5475 59.8057 98.2843L58.9835 96.4611ZM58.6196 97.0394C58.6196 96.7591 58.788 96.5418 59.0114 96.4491L59.7779 98.2964C60.2584 98.097 60.6196 97.613 60.6196 97.0394H58.6196ZM58.6351 97.1792C58.6631 97.2518 58.6196 97.1599 58.6196 97.0394H60.6196C60.6196 96.7455 60.5246 96.5204 60.5012 96.4596L58.6351 97.1792ZM60.4643 90.1175C58.4687 91.7799 57.7007 94.6768 58.6313 97.1692L60.505 96.4696C59.8673 94.7619 60.4106 92.7653 61.7443 91.6542L60.4643 90.1175ZM62.4612 89.036C61.6444 89.2411 60.9758 89.6916 60.4644 90.1174L61.7442 91.6543C62.1455 91.3202 62.5438 91.0773 62.9483 90.9757L62.4612 89.036ZM63.9767 93.118C63.3376 92.4684 63.1665 91.327 63.6009 90.4495L61.8085 89.5622C61.0218 91.1514 61.2749 93.2235 62.5511 94.5206L63.9767 93.118ZM64.5969 93.6374C64.3381 93.4397 64.1462 93.291 63.9783 93.1196L62.5495 94.519C62.8338 94.8093 63.1407 95.0418 63.3825 95.2266L64.5969 93.6374ZM65.275 94.1933C65.0401 93.9752 64.7962 93.7897 64.5969 93.6374L63.3825 95.2266C63.5934 95.3877 63.7608 95.5165 63.9138 95.6587L65.275 94.1933ZM65.4012 94.3212C65.37 94.2893 65.3417 94.2604 65.3143 94.2319L63.8745 95.6201C63.9075 95.6543 63.9406 95.6882 63.971 95.7192L65.4012 94.3212Z" fill="black" mask="url(#path-11-inside-4_7_79)"/>
<mask id="path-13-inside-5_7_79" fill="white">
<path fill-rule="evenodd" clip-rule="evenodd" d="M86.6861 95.0202C86.8256 95.1629 86.9682 95.3089 87.0893 95.4727C87.0893 95.4727 87.4492 96.006 87.5842 96.3127L87.6678 96.486C88.2719 98.0061 87.8606 99.7795 86.6844 100.886C85.6303 101.873 84.1584 102.133 82.7829 101.953C81.491 101.786 80.2891 100.96 79.595 99.8061C79.4021 99.4528 79.2286 99.0528 79.1386 98.6528C79.0293 98.3194 78.9908 97.9861 78.9522 97.6527C78.8687 96.206 79.4536 94.6727 80.5269 93.766C80.0384 94.8593 80.1541 96.226 80.8804 97.1794C80.9061 97.2261 80.9319 97.2594 80.9704 97.2927C81.0925 97.3994 81.2468 97.4394 81.3946 97.3727C81.5232 97.3194 81.6196 97.1861 81.6196 97.0394C81.6196 96.9527 81.5939 96.8861 81.5682 96.8194C80.784 94.7193 81.4396 92.2726 83.1043 90.8859C83.5607 90.5059 84.0941 90.1592 84.7047 90.0059C84.0941 91.2392 84.3062 92.8459 85.2639 93.8193C85.49 94.0502 85.7394 94.2407 85.9897 94.432C86.1948 94.5887 86.4004 94.7459 86.5944 94.926C86.6246 94.9574 86.6553 94.9887 86.6861 95.0202Z"/>
</mask>
<path fill-rule="evenodd" clip-rule="evenodd" d="M86.6861 95.0202C86.8256 95.1629 86.9682 95.3089 87.0893 95.4727C87.0893 95.4727 87.4492 96.006 87.5842 96.3127L87.6678 96.486C88.2719 98.0061 87.8606 99.7795 86.6844 100.886C85.6303 101.873 84.1584 102.133 82.7829 101.953C81.491 101.786 80.2891 100.96 79.595 99.8061C79.4021 99.4528 79.2286 99.0528 79.1386 98.6528C79.0293 98.3194 78.9908 97.9861 78.9522 97.6527C78.8687 96.206 79.4536 94.6727 80.5269 93.766C80.0384 94.8593 80.1541 96.226 80.8804 97.1794C80.9061 97.2261 80.9319 97.2594 80.9704 97.2927C81.0925 97.3994 81.2468 97.4394 81.3946 97.3727C81.5232 97.3194 81.6196 97.1861 81.6196 97.0394C81.6196 96.9527 81.5939 96.8861 81.5682 96.8194C80.784 94.7193 81.4396 92.2726 83.1043 90.8859C83.5607 90.5059 84.0941 90.1592 84.7047 90.0059C84.0941 91.2392 84.3062 92.8459 85.2639 93.8193C85.49 94.0502 85.7394 94.2407 85.9897 94.432C86.1948 94.5887 86.4004 94.7459 86.5944 94.926C86.6246 94.9574 86.6553 94.9887 86.6861 95.0202Z" fill="#E54141"/>
<path d="M87.0893 95.4727L87.9182 94.9133L87.9062 94.8955L87.8935 94.8783L87.0893 95.4727ZM86.6861 95.0202L87.4012 94.3212L87.4012 94.3212L86.6861 95.0202ZM87.5842 96.3127L86.6689 96.7155L86.6759 96.7314L86.6834 96.7469L87.5842 96.3127ZM87.6678 96.486L88.597 96.1167L88.584 96.0837L88.5686 96.0518L87.6678 96.486ZM86.6844 100.886L87.3678 101.616L87.3696 101.614L86.6844 100.886ZM82.7829 101.953L82.9127 100.961L82.9109 100.961L82.7829 101.953ZM79.595 99.8061L78.7172 100.285L78.7273 100.304L78.7382 100.322L79.595 99.8061ZM79.1386 98.6528L80.1142 98.4333L80.1037 98.3867L80.0889 98.3413L79.1386 98.6528ZM78.9522 97.6527L77.9539 97.7104L77.9555 97.7391L77.9588 97.7677L78.9522 97.6527ZM80.5269 93.766L81.4399 94.1739L79.8816 93.002L80.5269 93.766ZM80.8804 97.1794L81.7563 96.6969L81.7207 96.6322L81.6759 96.5734L80.8804 97.1794ZM80.9704 97.2927L81.6283 96.5396L81.6244 96.5362L80.9704 97.2927ZM81.3946 97.3727L81.0114 96.4491L80.9974 96.4549L80.9835 96.4611L81.3946 97.3727ZM81.5682 96.8194L80.6313 97.1692L80.6351 97.1792L81.5682 96.8194ZM83.1043 90.8859L82.4644 90.1174L82.4643 90.1175L83.1043 90.8859ZM84.7047 90.0059L85.6009 90.4495L86.5619 88.5084L84.4612 89.036L84.7047 90.0059ZM85.2639 93.8193L85.9783 93.1196L85.9767 93.118L85.2639 93.8193ZM85.9897 94.432L85.3825 95.2266L85.3825 95.2266L85.9897 94.432ZM86.5944 94.926L87.3143 94.2319L87.2952 94.2121L87.275 94.1933L86.5944 94.926ZM87.8935 94.8783C87.7247 94.6499 87.5327 94.4558 87.4012 94.3212L85.971 95.7192C86.1184 95.87 86.2117 95.9678 86.2851 96.0671L87.8935 94.8783ZM88.4995 95.9099C88.4003 95.6846 88.2419 95.4208 88.1351 95.2493C88.0767 95.1555 88.0233 95.0727 87.9844 95.0133C87.9649 94.9835 87.9489 94.9592 87.9375 94.9421C87.9318 94.9335 87.9272 94.9267 87.924 94.9219C87.9223 94.9194 87.921 94.9175 87.9201 94.9161C87.9196 94.9153 87.9192 94.9147 87.9189 94.9143C87.9187 94.9141 87.9186 94.9139 87.9185 94.9137C87.9184 94.9136 87.9184 94.9135 87.9183 94.9135C87.9183 94.9134 87.9183 94.9134 87.9183 94.9134C87.9182 94.9133 87.9182 94.9133 87.0893 95.4727C86.2604 96.0321 86.2604 96.032 86.2603 96.032C86.2603 96.032 86.2603 96.032 86.2603 96.0319C86.2603 96.0319 86.2603 96.0319 86.2603 96.0319C86.2602 96.0318 86.2602 96.0318 86.2602 96.0319C86.2603 96.0319 86.2604 96.0321 86.2606 96.0324C86.261 96.033 86.2617 96.0341 86.2628 96.0356C86.2648 96.0387 86.2682 96.0437 86.2726 96.0503C86.2814 96.0635 86.2945 96.0834 86.3109 96.1083C86.3437 96.1585 86.3887 96.2282 86.4372 96.3061C86.5441 96.4779 86.6331 96.6342 86.6689 96.7155L88.4995 95.9099ZM88.5686 96.0518L88.485 95.8785L86.6834 96.7469L86.767 96.9203L88.5686 96.0518ZM87.3696 101.614C88.8406 100.23 89.3548 98.0232 88.597 96.1167L86.7385 96.8554C87.1891 97.989 86.8805 99.3285 85.9991 100.158L87.3696 101.614ZM82.6532 102.944C84.2169 103.149 86.0265 102.872 87.3678 101.616L86.001 100.156C85.2341 100.874 84.0999 101.117 82.9127 100.961L82.6532 102.944ZM78.7382 100.322C79.5768 101.715 81.0361 102.736 82.655 102.945L82.9109 100.961C81.946 100.837 81.0014 100.204 80.4517 99.2905L78.7382 100.322ZM78.163 98.8722C78.28 99.3926 78.4973 99.8822 78.7172 100.285L80.4728 99.3271C80.307 99.0234 80.1771 98.713 80.1142 98.4333L78.163 98.8722ZM77.9588 97.7677C77.9958 98.0872 78.0427 98.5199 78.1884 98.9643L80.0889 98.3413C80.016 98.119 79.9858 97.885 79.9456 97.5378L77.9588 97.7677ZM79.8816 93.002C78.5383 94.1368 77.8545 95.9903 77.9539 97.7104L79.9506 97.5951C79.8828 96.4218 80.3688 95.2085 81.1722 94.5299L79.8816 93.002ZM81.6759 96.5734C81.1876 95.9324 81.0894 94.9585 81.4399 94.1739L79.6139 93.3581C78.9875 94.7602 79.1207 96.5196 80.085 97.7854L81.6759 96.5734ZM81.6244 96.5362C81.6487 96.5573 81.6775 96.586 81.7057 96.6217C81.7329 96.6562 81.7494 96.6844 81.7563 96.6969L80.0046 97.6619C80.0787 97.7965 80.1755 97.9275 80.3165 98.0493L81.6244 96.5362ZM80.9835 96.4611C81.1064 96.4057 81.2463 96.3917 81.376 96.4186C81.4977 96.4438 81.5808 96.4981 81.6283 96.5396L80.3126 98.0459C80.6578 98.3474 81.2221 98.5475 81.8057 98.2843L80.9835 96.4611ZM80.6196 97.0394C80.6196 96.7591 80.788 96.5418 81.0114 96.4491L81.7779 98.2964C82.2584 98.097 82.6196 97.613 82.6196 97.0394H80.6196ZM80.6351 97.1792C80.6631 97.2518 80.6196 97.1599 80.6196 97.0394H82.6196C82.6196 96.7455 82.5246 96.5204 82.5012 96.4596L80.6351 97.1792ZM82.4643 90.1175C80.4687 91.7799 79.7007 94.6768 80.6313 97.1692L82.505 96.4696C81.8673 94.7619 82.4106 92.7653 83.7443 91.6542L82.4643 90.1175ZM84.4612 89.036C83.6444 89.2411 82.9758 89.6916 82.4644 90.1174L83.7442 91.6543C84.1455 91.3202 84.5438 91.0773 84.9483 90.9757L84.4612 89.036ZM85.9767 93.118C85.3376 92.4684 85.1665 91.327 85.6009 90.4495L83.8085 89.5622C83.0218 91.1514 83.2749 93.2235 84.5511 94.5206L85.9767 93.118ZM86.5969 93.6374C86.3381 93.4397 86.1462 93.291 85.9783 93.1196L84.5495 94.519C84.8338 94.8093 85.1407 95.0418 85.3825 95.2266L86.5969 93.6374ZM87.275 94.1933C87.0401 93.9752 86.7962 93.7897 86.5969 93.6374L85.3825 95.2266C85.5934 95.3877 85.7608 95.5165 85.9138 95.6587L87.275 94.1933ZM87.4012 94.3212C87.37 94.2893 87.3417 94.2604 87.3143 94.2319L85.8745 95.6201C85.9075 95.6543 85.9406 95.6882 85.971 95.7192L87.4012 94.3212Z" fill="black" mask="url(#path-13-inside-5_7_79)"/>
</svg>
