<svg width="11" height="15" viewBox="0 0 11 15" fill="none" xmlns="http://www.w3.org/2000/svg">
<path d="M3 14.25V15H1.5V14.25C1.10218 14.25 0.720644 14.092 0.43934 13.8107C0.158035 13.5294 0 13.1478 0 12.75V1.5C0 1.10218 0.158035 0.720644 0.43934 0.43934C0.720644 0.158035 1.10218 0 1.5 0H9C9.39782 0 9.77936 0.158035 10.0607 0.43934C10.342 0.720644 10.5 1.10218 10.5 1.5V12.75C10.5 13.1478 10.342 13.5294 10.0607 13.8107C9.77936 14.092 9.39782 14.25 9 14.25V15H7.5V14.25H3ZM1.5 1.5V5.25H9V1.5H1.5ZM1.5 12.75H9V6.75H1.5V12.75ZM2.25 7.5H3.75V9.75H2.25V7.5ZM2.25 3H3.75V4.5H2.25V3Z" fill="black"/>
</svg>
