<svg width="17" height="15" viewBox="0 0 17 15" fill="none" xmlns="http://www.w3.org/2000/svg">
<path d="M5.25 0C8.175 0 10.5 2.325 10.5 5.25C10.5 7.05 9.6 8.625 8.25 9.525V11.25C8.25 11.7 7.95 12 7.5 12H3C2.55 12 2.25 11.7 2.25 11.25V9.525C0.9 8.625 0 7.05 0 5.25C0 2.325 2.325 0 5.25 0ZM3 14.25V13.5H7.5V14.25C7.5 14.7 7.2 15 6.75 15H3.75C3.3 15 3 14.7 3 14.25ZM5.25 1.5C3.15 1.5 1.5 3.15 1.5 5.25C1.5 6.825 2.4 8.1 3.75 8.7V10.5H6.75V8.7C8.1 8.1 9 6.825 9 5.25C9 3.15 7.35 1.5 5.25 1.5ZM14.625 9.375V10.5H13.5V9.375H14.625ZM13.125 5.625H12V5.25C12 3.975 12.975 3 14.25 3C15.525 3 16.5 3.975 16.5 5.25C16.5 6 16.125 6.675 15.525 7.05L15.3 7.2C14.85 7.5 14.625 7.95 14.625 8.475V8.625H13.5V8.475C13.5 7.575 13.95 6.75 14.7 6.3L14.925 6.15C15.225 5.925 15.375 5.625 15.375 5.25C15.375 4.65 14.85 4.125 14.25 4.125C13.65 4.125 13.125 4.65 13.125 5.25V5.625Z" fill="black"/>
</svg>
