<svg width="202" height="372" viewBox="0 0 202 372" fill="none" xmlns="http://www.w3.org/2000/svg">
<rect x="1" y="1" width="200" height="370" rx="20" fill="#D9D9D9" stroke="black"/>
<path d="M1 183H201V351C201 362.046 192.046 371 181 371H21C9.95431 371 1 362.046 1 351V183Z" fill="white" stroke="black"/>
<path d="M1 21C1 9.9543 9.95431 1 21 1H181C192.046 1 201 9.95431 201 21V183H1V21Z" fill="white" stroke="black"/>
<path d="M1 349H201V351C201 362.046 192.046 371 181 371H21C9.95431 371 1 362.046 1 351V349Z" fill="#D9D9D9" stroke="black"/>
<path fill-rule="evenodd" clip-rule="evenodd" d="M71.0221 186.287C71.2084 184.516 69.8195 182.974 68.0385 182.974H24.5848C22.8038 182.974 21.415 184.516 21.6013 186.287L22.4034 193.913C22.564 195.44 23.8515 196.6 25.3869 196.6H67.2364C68.7718 196.6 70.0594 195.44 70.22 193.913L71.0221 186.287Z" fill="#D9D9D9"/>
<path d="M70.22 193.913L69.7227 193.861L70.22 193.913ZM21.6013 186.287L21.104 186.34L21.6013 186.287ZM68.0385 182.474H24.5848V183.474H68.0385V182.474ZM21.104 186.34L21.9061 193.966L22.9006 193.861L22.0985 186.235L21.104 186.34ZM25.3869 197.1H67.2364V196.1H25.3869V197.1ZM70.7172 193.966L71.5193 186.34L70.5248 186.235L69.7227 193.861L70.7172 193.966ZM67.2364 197.1C69.0277 197.1 70.5299 195.747 70.7172 193.966L69.7227 193.861C69.5889 195.134 68.5159 196.1 67.2364 196.1V197.1ZM21.9061 193.966C22.0935 195.747 23.5956 197.1 25.3869 197.1V196.1C24.1074 196.1 23.0345 195.134 22.9006 193.861L21.9061 193.966ZM24.5848 182.474C22.507 182.474 20.8866 184.273 21.104 186.34L22.0985 186.235C21.9433 184.759 23.1006 183.474 24.5848 183.474V182.474ZM68.0385 183.474C69.5227 183.474 70.6801 184.759 70.5248 186.235L71.5193 186.34C71.7367 184.273 70.1164 182.474 68.0385 182.474V183.474Z" fill="black"/>
</svg>
